# File produced by Open Asset Import Library (http://www.assimp.sf.net)
# (assimp v3.1.187496374)

mtllib A.obj.mtl

# 32 vertex positions
v  0.594 3.226 0.05
v  -0.603 3.226 2.5
v  0.594 3.226 2.5
v  -0.603 3.226 0.05
v  3.069 -3.2 0.05
v  3.069 -3.2 2.5
v  1.863 -3.2 0.05
v  1.863 -3.2 2.5
v  1.26 -1.499 0.05
v  1.26 -1.499 2.5
v  -1.305 -1.499 0.05
v  -1.305 -1.499 2.5
v  -1.908 -3.2 0.05
v  -1.908 -3.2 2.5
v  -3.069 -3.2 0.05
v  -3.069 -3.2 2.5
v  0.963 -0.644 0.05
v  -0.999 -0.644 2.5
v  0.963 -0.644 2.5
v  -0.999 -0.644 0.05
v  0 2.119 0.05
v  0 2.119 2.5
v  -0.027 2.119 0.05
v  -0.027 2.119 2.5
v  -4.625 -4.625 -0.05
v  4.625 -4.625 0.05
v  -4.625 -4.625 0.05
v  4.625 -4.625 -0.05
v  4.625 4.625 0.05
v  4.625 4.625 -0.05
v  -4.625 4.625 0.05
v  -4.625 4.625 -0.05

# 0 UV coordinates

# 19 vertex normals
vn 0 1 0
vn 0.933177 0.359417 0
vn 0 -1 0
vn -0.942529 -0.334124 0
vn 0.942529 -0.334124 0
vn -0.933615 0.358278 0
vn -0.944289 -0.329117 0
vn 0.94333 -0.331856 0
vn 1 0 0
vn -1 0 0
vn 0 0 1
vn 9.19527e-17 3.29472e-17 1
vn 0 1.26604e-16 1
vn -1.15946e-16 0 1
vn -3.94788e-17 -1.52054e-17 1
vn 0 -1.28957e-16 1
vn 1.50719e-16 4.33305e-16 1
vn 1.15946e-16 0 1
vn 0 0 -1

# Mesh '<STL_BINARY>' with 60 faces
g <STL_BINARY>
usemtl DefaultMaterial
f  1//1 2//1 3//1
f  1//1 4//1 2//1
f  5//2 3//2 6//2
f  5//2 1//2 3//2
f  7//3 6//3 8//3
f  7//3 5//3 6//3
f  9//4 8//4 10//4
f  9//4 7//4 8//4
f  11//3 10//3 12//3
f  11//3 9//3 10//3
f  13//5 12//5 14//5
f  13//5 11//5 12//5
f  15//3 14//3 16//3
f  15//3 13//3 14//3
f  4//6 16//6 2//6
f  4//6 15//6 16//6
f  17//1 18//1 19//1
f  17//1 20//1 18//1
f  21//7 19//7 22//7
f  21//7 17//7 19//7
f  23//3 22//3 24//3
f  23//3 21//3 22//3
f  20//8 24//8 18//8
f  20//8 23//8 24//8
f  25//3 26//3 27//3
f  25//3 28//3 26//3
f  28//9 29//9 26//9
f  28//9 30//9 29//9
f  30//1 31//1 29//1
f  30//1 32//1 31//1
f  32//10 27//10 31//10
f  32//10 25//10 27//10
f  23//11 17//11 21//11
f  23//11 20//12 17//11
f  26//13 5//13 7//13
f  29//14 5//13 26//13
f  7//13 27//13 26//13
f  29//14 1//15 5//13
f  31//16 1//15 29//14
f  31//16 4//17 1//15
f  15//18 31//16 27//13
f  15//18 4//17 31//16
f  7//13 13//11 27//13
f  27//13 13//11 15//18
f  7//13 11//11 13//11
f  7//13 9//11 11//11
f  32//19 28//19 25//19
f  32//19 30//19 28//19
f  2//11 22//11 3//11
f  2//11 24//11 22//11
f  2//11 18//11 24//11
f  2//11 16//11 18//11
f  3//11 22//11 19//11
f  3//11 19//11 6//11
f  6//11 19//11 10//11
f  10//11 19//11 18//11
f  10//11 18//11 12//11
f  12//11 18//11 16//11
f  12//11 16//11 14//11
f  6//11 10//11 8//11

