# File produced by Open Asset Import Library (http://www.assimp.sf.net)
# (assimp v3.1.187496374)

mtllib D.obj.mtl

# 176 vertex positions
v  -0.0855 3.226 0.05
v  -2.7495 3.226 1.5
v  -0.0855 3.226 1.5
v  -2.7495 3.226 0.05
v  0.257335 3.21148 0.05
v  0.257335 3.21148 1.5
v  0.551563 3.17268 0.05
v  0.551563 3.17268 1.5
v  0.802411 3.11623 0.05
v  0.802411 3.11623 1.5
v  0.991685 3.05656 0.05
v  0.991685 3.05656 1.5
v  1.1925 2.974 0.05
v  1.1925 2.974 1.5
v  1.42052 2.85419 0.05
v  1.42052 2.85419 1.5
v  1.61117 2.72977 0.05
v  1.61117 2.72977 1.5
v  1.78599 2.5906 0.05
v  1.78599 2.5906 1.5
v  1.92978 2.45272 0.05
v  1.92978 2.45272 1.5
v  2.00412 2.37095 0.05
v  2.00412 2.37095 1.5
v  2.0745 2.2855 0.05
v  2.0745 2.2855 1.5
v  2.21649 2.08625 0.05
v  2.21649 2.08625 1.5
v  2.34148 1.87263 0.05
v  2.34148 1.87263 1.5
v  2.45847 1.62319 0.05
v  2.45847 1.62319 1.5
v  2.52523 1.4474 0.05
v  2.52523 1.4474 1.5
v  2.583 1.264 0.05
v  2.583 1.264 1.5
v  2.66792 0.90571 0.05
v  2.66792 0.90571 1.5
v  2.72546 0.507464 0.05
v  2.72546 0.507464 1.5
v  2.74284 0.27616 0.05
v  2.74284 0.27616 1.5
v  2.7495 0.013 0.05
v  2.7495 0.013 1.5
v  2.73025 -0.430516 0.05
v  2.73025 -0.430516 1.5
v  2.67697 -0.830836 0.05
v  2.67697 -0.830836 1.5
v  2.63755 -1.02478 0.05
v  2.63755 -1.02478 1.5
v  2.583 -1.238 0.05
v  2.583 -1.238 1.5
v  2.48456 -1.53216 0.05
v  2.48456 -1.53216 1.5
v  2.37263 -1.78587 0.05
v  2.37263 -1.78587 1.5
v  2.25226 -2.00342 0.05
v  2.25226 -2.00342 1.5
v  2.16682 -2.13437 0.05
v  2.16682 -2.13437 1.5
v  2.0745 -2.2595 0.05
v  2.0745 -2.2595 1.5
v  1.94496 -2.41066 0.05
v  1.94496 -2.41066 1.5
v  1.8026 -2.54987 0.05
v  1.8026 -2.54987 1.5
v  1.62937 -2.69052 0.05
v  1.62937 -2.69052 1.5
v  1.4403 -2.81641 0.05
v  1.4403 -2.81641 1.5
v  1.31925 -2.88486 0.05
v  1.31925 -2.88486 1.5
v  1.1925 -2.948 0.05
v  1.1925 -2.948 1.5
v  0.991685 -3.03056 0.05
v  0.991685 -3.03056 1.5
v  0.753509 -3.10313 0.05
v  0.753509 -3.10313 1.5
v  0.499493 -3.15555 0.05
v  0.499493 -3.15555 1.5
v  0.229637 -3.1878 0.05
v  0.229637 -3.1878 1.5
v  -0.0855 -3.2 0.05
v  -0.0855 -3.2 1.5
v  -2.7495 -3.2 0.05
v  -2.7495 -3.2 1.5
v  -0.5175 -2.282 0.05
v  -1.6245 -2.282 1.5
v  -0.5175 -2.282 1.5
v  -1.6245 -2.282 0.05
v  -0.144765 -2.26621 0.05
v  -0.144765 -2.26621 1.5
v  0.122513 -2.23082 0.05
v  0.122513 -2.23082 1.5
v  0.343382 -2.18063 0.05
v  0.343382 -2.18063 1.5
v  0.454126 -2.14609 0.05
v  0.454126 -2.14609 1.5
v  0.558 -2.1065 0.05
v  0.558 -2.1065 1.5
v  0.7182 -2.0309 0.05
v  0.7182 -2.0309 1.5
v  0.850068 -1.95363 0.05
v  0.850068 -1.95363 1.5
v  0.970272 -1.8676 0.05
v  0.970272 -1.8676 1.5
v  1.06733 -1.7838 0.05
v  1.06733 -1.7838 1.5
v  1.14469 -1.70479 0.05
v  1.14469 -1.70479 1.5
v  1.215 -1.6205 0.05
v  1.215 -1.6205 1.5
v  1.30428 -1.49198 0.05
v  1.30428 -1.49198 1.5
v  1.38132 -1.35482 0.05
v  1.38132 -1.35482 1.5
v  1.44612 -1.20902 0.05
v  1.44612 -1.20902 1.5
v  1.49868 -1.05458 0.05
v  1.49868 -1.05458 1.5
v  1.539 -0.8915 0.05
v  1.539 -0.8915 1.5
v  1.59574 -0.528053 0.05
v  1.59574 -0.528053 1.5
v  1.6168 -0.272525 0.05
v  1.6168 -0.272525 1.5
v  1.6245 0.013 0.05
v  1.6245 0.013 1.5
v  1.6048 0.464008 0.05
v  1.6048 0.464008 1.5
v  1.57768 0.695317 0.05
v  1.57768 0.695317 1.5
v  1.539 0.9175 0.05
v  1.539 0.9175 1.5
v  1.49397 1.09641 0.05
v  1.49397 1.09641 1.5
v  1.44019 1.24999 0.05
v  1.44019 1.24999 1.5
v  1.37417 1.39492 0.05
v  1.37417 1.39492 1.5
v  1.30428 1.51798 0.05
v  1.30428 1.51798 1.5
v  1.215 1.6465 0.05
v  1.215 1.6465 1.5
v  1.13407 1.7424 0.05
v  1.13407 1.7424 1.5
v  1.04393 1.8314 0.05
v  1.04393 1.8314 1.5
v  0.9315 1.92325 0.05
v  0.9315 1.92325 1.5
v  0.807408 2.00636 0.05
v  0.807408 2.00636 1.5
v  0.687312 2.07288 0.05
v  0.687312 2.07288 1.5
v  0.558 2.1325 0.05
v  0.558 2.1325 1.5
v  0.399613 2.18999 0.05
v  0.399613 2.18999 1.5
v  0.205501 2.24054 0.05
v  0.205501 2.24054 1.5
v  -0.0526194 2.28266 0.05
v  -0.0526194 2.28266 1.5
v  -0.26424 2.30098 0.05
v  -0.26424 2.30098 1.5
v  -0.5175 2.308 0.05
v  -0.5175 2.308 1.5
v  -1.6245 2.308 0.05
v  -1.6245 2.308 1.5
v  -14.3819 -4.625 -0.05
v  4.61806 -4.625 0.05
v  -14.3819 -4.625 0.05
v  4.61806 -4.625 -0.05
v  4.61806 4.625 0.05
v  4.61806 4.625 -0.05
v  -14.3819 4.625 0.05
v  -14.3819 4.625 -0.05

# 0 UV coordinates

# 125 vertex normals
vn 0 1 0
vn 0.0423008 0.999105 0
vn 0.130765 0.991413 0
vn 0.219539 0.975604 0
vn 0.300687 0.953723 0
vn 0.380224 0.924894 0
vn 0.465141 0.885237 0
vn 0.546499 0.83746 0
vn 0.622846 0.782344 0
vn 0.69211 0.721792 0
vn 0.739903 0.672713 0
vn 0.771907 0.635736 0
vn 0.814378 0.580334 0
vn 0.863102 0.505029 0
vn 0.905372 0.424619 0
vn 0.934861 0.355014 0
vn 0.953795 0.300457 0
vn 0.973046 0.230613 0
vn 0.989722 0.143004 0
vn 0.997188 0.0749393 0
vn 0.99968 0.0252997 0
vn 0.99906 -0.0433565 0
vn 0.991259 -0.13193 0
vn 0.979954 -0.199222 0
vn 0.968803 -0.247832 0
vn 0.948305 -0.317359 0
vn 0.914919 -0.403636 0
vn 0.874997 -0.484128 0
vn 0.837502 -0.546435 0
vn 0.804691 -0.593694 0
vn 0.759337 -0.650698 0
vn 0.69913 -0.714995 0
vn 0.630325 -0.776331 0
vn 0.554225 -0.832367 0
vn 0.492236 -0.870462 0
vn 0.445871 -0.895097 0
vn 0.380224 -0.924894 0
vn 0.291484 -0.956576 0
vn 0.202092 -0.979367 0
vn 0.118686 -0.992932 0
vn 0.0386742 -0.999252 0
vn 0 -1 0
vn -1 0 0
vn -0.042338 0.999103 0
vn -0.13123 0.991352 0
vn -0.221602 0.975137 0
vn -0.297734 0.954649 0
vn -0.356165 0.934423 0
vn -0.426775 0.904358 0
vn -0.505583 0.862778 0
vn -0.581964 0.813215 0
vn -0.653561 0.756873 0
vn -0.714475 0.699661 0
vn -0.767939 0.640523 0
vn -0.82128 0.570525 0
vn -0.871881 0.489718 0
vn -0.913812 0.406138 0
vn -0.946679 0.32218 0
vn -0.97077 0.240014 0
vn -0.988033 0.154242 0
vn -0.996619 0.082167 0
vn -0.999637 0.0269406 0
vn -0.999047 -0.0436366 0
vn -0.993196 -0.116451 0
vn -0.985182 -0.171512 0
vn -0.969763 -0.24405 0
vn -0.943796 -0.330528 0
vn -0.910026 -0.414552 0
vn -0.86955 -0.493844 0
vn -0.82128 -0.570525 0
vn -0.764256 -0.644913 0
vn -0.702545 -0.711639 0
vn -0.632691 -0.774405 0
vn -0.556451 -0.83088 0
vn -0.484574 -0.87475 0
vn -0.418673 -0.908137 0
vn -0.34121 -0.939987 0
vn -0.251983 -0.967732 0
vn -0.16105 -0.986946 0
vn -0.0862577 -0.996273 0
vn -0.0277079 -0.999616 0
vn 1 0 0
vn 0 0 1
vn -3.76092e-17 0 1
vn 0 -9.07045e-18 1
vn -1.56281e-17 8.23025e-17 1
vn 0 -2.92164e-17 1
vn 1.00268e-18 -2.59068e-17 1
vn 3.70412e-18 -1.79507e-17 1
vn 4.69959e-18 -1.54229e-17 1
vn 5.54753e-18 -1.34943e-17 1
vn 6.1296e-18 -1.23053e-17 1
vn 6.52967e-18 -1.15469e-17 1
vn 7.06368e-18 -1.06087e-17 1
vn 7.75113e-18 -9.54657e-18 1
vn 8.43177e-18 -8.62311e-18 1
vn 9.10891e-18 -7.80568e-18 1
vn 9.70746e-18 -7.16208e-18 1
vn 1.02136e-17 -6.66395e-18 1
vn 1.09094e-17 -6.03605e-18 1
vn 1.19021e-17 -5.25089e-18 1
vn 1.31396e-17 -4.39728e-18 1
vn 1.4349e-17 -3.67064e-18 1
vn 1.53491e-17 -3.12043e-18 1
vn 1.70206e-17 -2.26533e-18 1
vn 2.09711e-17 5.30732e-19 1
vn 1.89068e-17 1.42086e-18 1
vn 1.67368e-17 2.41829e-18 1
vn 1.4703e-17 3.48463e-18 1
vn 1.3457e-17 4.23912e-18 1
vn 1.2618e-17 4.79169e-18 1
vn 1.16704e-17 5.47341e-18 1
vn 1.07107e-17 6.2672e-18 1
vn 9.8875e-18 7.04594e-18 1
vn 9.31323e-18 7.67029e-18 1
vn 8.92789e-18 8.11716e-18 1
vn 8.40447e-18 8.7649e-18 1
vn 7.72786e-18 9.7068e-18 1
vn 7.0432e-18 1.07931e-17 1
vn 6.33914e-18 1.20644e-17 1
vn 5.59467e-18 1.3609e-17 1
vn 4.84042e-18 1.53529e-17 1
vn 3.95738e-18 1.75861e-17 1
vn 2.7613e-18 2.09351e-17 1
vn 0 0 -1

# Mesh '<STL_BINARY>' with 348 faces
g <STL_BINARY>
usemtl DefaultMaterial
f  1//1 2//1 3//1
f  1//1 4//1 2//1
f  5//2 3//2 6//2
f  5//2 1//2 3//2
f  7//3 6//3 8//3
f  7//3 5//3 6//3
f  9//4 8//4 10//4
f  9//4 7//4 8//4
f  11//5 10//5 12//5
f  11//5 9//5 10//5
f  13//6 12//6 14//6
f  13//6 11//6 12//6
f  15//7 14//7 16//7
f  15//7 13//7 14//7
f  17//8 16//8 18//8
f  17//8 15//8 16//8
f  19//9 18//9 20//9
f  19//9 17//9 18//9
f  21//10 20//10 22//10
f  21//10 19//10 20//10
f  23//11 22//11 24//11
f  23//11 21//11 22//11
f  25//12 24//12 26//12
f  25//12 23//12 24//12
f  27//13 26//13 28//13
f  27//13 25//13 26//13
f  29//14 28//14 30//14
f  29//14 27//14 28//14
f  31//15 30//15 32//15
f  31//15 29//15 30//15
f  33//16 32//16 34//16
f  33//16 31//16 32//16
f  35//17 34//17 36//17
f  35//17 33//17 34//17
f  37//18 36//18 38//18
f  37//18 35//18 36//18
f  39//19 38//19 40//19
f  39//19 37//19 38//19
f  41//20 40//20 42//20
f  41//20 39//20 40//20
f  43//21 42//21 44//21
f  43//21 41//21 42//21
f  45//22 44//22 46//22
f  45//22 43//22 44//22
f  47//23 46//23 48//23
f  47//23 45//23 46//23
f  49//24 48//24 50//24
f  49//24 47//24 48//24
f  51//25 50//25 52//25
f  51//25 49//25 50//25
f  53//26 52//26 54//26
f  53//26 51//26 52//26
f  55//27 54//27 56//27
f  55//27 53//27 54//27
f  57//28 56//28 58//28
f  57//28 55//28 56//28
f  59//29 58//29 60//29
f  59//29 57//29 58//29
f  61//30 60//30 62//30
f  61//30 59//30 60//30
f  63//31 62//31 64//31
f  63//31 61//31 62//31
f  65//32 64//32 66//32
f  65//32 63//32 64//32
f  67//33 66//33 68//33
f  67//33 65//33 66//33
f  69//34 68//34 70//34
f  69//34 67//34 68//34
f  71//35 70//35 72//35
f  71//35 69//35 70//35
f  73//36 72//36 74//36
f  73//36 71//36 72//36
f  75//37 74//37 76//37
f  75//37 73//37 74//37
f  77//38 76//38 78//38
f  77//38 75//38 76//38
f  79//39 78//39 80//39
f  79//39 77//39 78//39
f  81//40 80//40 82//40
f  81//40 79//40 80//40
f  83//41 82//41 84//41
f  83//41 81//41 82//41
f  85//42 84//42 86//42
f  85//42 83//42 84//42
f  4//43 86//43 2//43
f  4//43 85//43 86//43
f  87//1 88//1 89//1
f  87//1 90//1 88//1
f  91//44 89//44 92//44
f  91//44 87//44 89//44
f  93//45 92//45 94//45
f  93//45 91//45 92//45
f  95//46 94//46 96//46
f  95//46 93//46 94//46
f  97//47 96//47 98//47
f  97//47 95//47 96//47
f  99//48 98//48 100//48
f  99//48 97//48 98//48
f  101//49 100//49 102//49
f  101//49 99//49 100//49
f  103//50 102//50 104//50
f  103//50 101//50 102//50
f  105//51 104//51 106//51
f  105//51 103//51 104//51
f  107//52 106//52 108//52
f  107//52 105//52 106//52
f  109//53 108//53 110//53
f  109//53 107//53 108//53
f  111//54 110//54 112//54
f  111//54 109//54 110//54
f  113//55 112//55 114//55
f  113//55 111//55 112//55
f  115//56 114//56 116//56
f  115//56 113//56 114//56
f  117//57 116//57 118//57
f  117//57 115//57 116//57
f  119//58 118//58 120//58
f  119//58 117//58 118//58
f  121//59 120//59 122//59
f  121//59 119//59 120//59
f  123//60 122//60 124//60
f  123//60 121//60 122//60
f  125//61 124//61 126//61
f  125//61 123//61 124//61
f  127//62 126//62 128//62
f  127//62 125//62 126//62
f  129//63 128//63 130//63
f  129//63 127//63 128//63
f  131//64 130//64 132//64
f  131//64 129//64 130//64
f  133//65 132//65 134//65
f  133//65 131//65 132//65
f  135//66 134//66 136//66
f  135//66 133//66 134//66
f  137//67 136//67 138//67
f  137//67 135//67 136//67
f  139//68 138//68 140//68
f  139//68 137//68 138//68
f  141//69 140//69 142//69
f  141//69 139//69 140//69
f  143//70 142//70 144//70
f  143//70 141//70 142//70
f  145//71 144//71 146//71
f  145//71 143//71 144//71
f  147//72 146//72 148//72
f  147//72 145//72 146//72
f  149//73 148//73 150//73
f  149//73 147//73 148//73
f  151//74 150//74 152//74
f  151//74 149//74 150//74
f  153//75 152//75 154//75
f  153//75 151//75 152//75
f  155//76 154//76 156//76
f  155//76 153//76 154//76
f  157//77 156//77 158//77
f  157//77 155//77 156//77
f  159//78 158//78 160//78
f  159//78 157//78 158//78
f  161//79 160//79 162//79
f  161//79 159//79 160//79
f  163//80 162//80 164//80
f  163//80 161//80 162//80
f  165//81 164//81 166//81
f  165//81 163//81 164//81
f  167//42 166//42 168//42
f  167//42 165//42 166//42
f  90//82 168//82 88//82
f  90//82 167//82 168//82
f  169//42 170//42 171//42
f  169//42 172//42 170//42
f  172//82 173//82 170//82
f  172//82 174//82 173//82
f  174//1 175//1 173//1
f  174//1 176//1 175//1
f  176//43 171//43 175//43
f  176//43 169//43 171//43
f  111//83 107//83 109//83
f  111//83 105//83 107//83
f  113//83 105//83 111//83
f  113//83 103//83 105//83
f  115//83 103//83 113//83
f  115//83 101//83 103//83
f  117//83 101//83 115//83
f  117//83 99//83 101//83
f  119//83 99//83 117//83
f  119//83 97//83 99//83
f  121//83 97//83 119//83
f  121//83 95//83 97//83
f  95//83 121//83 93//83
f  123//83 93//83 121//83
f  123//83 91//83 93//83
f  123//83 87//83 91//83
f  123//83 125//83 87//83
f  165//84 90//84 87//83
f  127//83 165//84 87//83
f  87//83 125//83 127//83
f  165//84 167//85 90//84
f  127//83 129//83 165//84
f  129//83 163//83 165//84
f  129//83 131//83 163//83
f  163//83 131//83 161//83
f  131//83 159//83 161//83
f  131//83 133//83 159//83
f  133//83 157//83 159//83
f  133//83 135//83 157//83
f  135//83 155//83 157//83
f  135//83 137//83 155//83
f  137//83 153//83 155//83
f  137//83 139//83 153//83
f  139//83 151//83 153//83
f  139//83 141//83 151//83
f  141//83 149//83 151//83
f  141//83 143//83 149//83
f  143//83 147//83 149//83
f  143//83 145//83 147//83
f  4//83 173//83 175//83
f  4//83 1//86 173//83
f  85//87 4//83 175//83
f  85//87 175//83 171//87
f  170//87 85//87 171//87
f  170//87 83//87 85//87
f  170//87 81//88 83//87
f  170//87 79//89 81//88
f  170//87 77//89 79//89
f  170//87 75//90 77//89
f  170//87 73//91 75//90
f  170//87 71//92 73//91
f  170//87 69//93 71//92
f  170//87 67//94 69//93
f  170//87 65//95 67//94
f  170//87 63//96 65//95
f  170//87 61//97 63//96
f  170//87 59//98 61//97
f  170//87 57//99 59//98
f  170//87 55//100 57//99
f  170//87 53//101 55//100
f  170//87 51//102 53//101
f  170//87 49//103 51//102
f  170//87 47//104 49//103
f  170//87 45//105 47//104
f  170//87 43//106 45//105
f  170//87 173//83 43//106
f  173//83 41//106 43//106
f  173//83 39//107 41//106
f  173//83 37//108 39//107
f  173//83 35//109 37//108
f  173//83 33//110 35//109
f  173//83 31//111 33//110
f  173//83 29//112 31//111
f  173//83 27//113 29//112
f  173//83 25//114 27//113
f  173//83 23//115 25//114
f  173//83 21//116 23//115
f  173//83 19//117 21//116
f  173//83 17//118 19//117
f  173//83 15//119 17//118
f  173//83 13//120 15//119
f  173//83 11//121 13//120
f  173//83 9//122 11//121
f  173//83 7//123 9//122
f  173//83 5//124 7//123
f  173//83 1//86 5//124
f  176//125 172//125 169//125
f  176//125 174//125 172//125
f  168//83 3//83 2//83
f  168//83 166//83 3//83
f  2//83 88//83 168//83
f  162//83 6//83 3//83
f  3//83 164//83 162//83
f  3//83 166//83 164//83
f  162//83 160//83 6//83
f  6//83 160//83 8//83
f  8//83 160//83 158//83
f  8//83 158//83 10//83
f  10//83 158//83 156//83
f  10//83 156//83 12//83
f  12//83 156//83 154//83
f  12//83 154//83 14//83
f  14//83 154//83 152//83
f  14//83 152//83 16//83
f  16//83 152//83 150//83
f  16//83 150//83 18//83
f  18//83 150//83 148//83
f  18//83 148//83 20//83
f  20//83 148//83 146//83
f  20//83 146//83 22//83
f  146//83 24//83 22//83
f  146//83 144//83 24//83
f  24//83 144//83 26//83
f  26//83 144//83 142//83
f  26//83 142//83 28//83
f  28//83 142//83 140//83
f  28//83 140//83 30//83
f  30//83 140//83 138//83
f  30//83 138//83 32//83
f  32//83 138//83 136//83
f  32//83 136//83 34//83
f  136//83 36//83 34//83
f  136//83 134//83 36//83
f  134//83 38//83 36//83
f  134//83 132//83 38//83
f  38//83 130//83 40//83
f  38//83 132//83 130//83
f  130//83 42//83 40//83
f  130//83 128//83 42//83
f  42//83 128//83 44//83
f  44//83 128//83 126//83
f  44//83 126//83 46//83
f  46//83 126//83 124//83
f  46//83 124//83 48//83
f  48//83 124//83 122//83
f  48//83 122//83 50//83
f  122//83 52//83 50//83
f  122//83 120//83 52//83
f  120//83 54//83 52//83
f  120//83 118//83 54//83
f  118//83 56//83 54//83
f  118//83 116//83 56//83
f  116//83 58//83 56//83
f  116//83 114//83 58//83
f  58//83 114//83 60//83
f  112//83 60//83 114//83
f  112//83 62//83 60//83
f  112//83 64//83 62//83
f  112//83 110//83 64//83
f  110//83 66//83 64//83
f  110//83 108//83 66//83
f  108//83 68//83 66//83
f  108//83 106//83 68//83
f  106//83 70//83 68//83
f  106//83 104//83 70//83
f  70//83 104//83 72//83
f  102//83 72//83 104//83
f  102//83 74//83 72//83
f  102//83 76//83 74//83
f  102//83 100//83 76//83
f  100//83 78//83 76//83
f  100//83 98//83 78//83
f  96//83 78//83 98//83
f  96//83 80//83 78//83
f  94//83 80//83 96//83
f  94//83 82//83 80//83
f  94//83 84//83 82//83
f  94//83 92//83 84//83
f  84//83 88//83 86//83
f  84//83 89//83 88//83
f  84//83 92//83 89//83
f  2//83 86//83 88//83

