# File produced by Open Asset Import Library (http://www.assimp.sf.net)
# (assimp v3.1.187496374)

mtllib E.obj.mtl

# 32 vertex positions
v  2.2815 3.226 0.05
v  -2.3445 3.226 2.5
v  2.2815 3.226 2.5
v  -2.3445 3.226 0.05
v  2.2815 2.254 0.05
v  2.2815 2.254 2.5
v  -1.2195 2.254 0.05
v  -1.2195 2.254 2.5
v  -1.2195 0.571 0.05
v  -1.2195 0.571 2.5
v  2.0205 0.571 0.05
v  2.0205 0.571 2.5
v  2.0205 -0.347 0.05
v  2.0205 -0.347 2.5
v  -1.2195 -0.347 0.05
v  -1.2195 -0.347 2.5
v  -1.2195 -2.228 0.05
v  -1.2195 -2.228 2.5
v  2.3445 -2.228 0.05
v  2.3445 -2.228 2.5
v  2.3445 -3.2 0.05
v  2.3445 -3.2 2.5
v  -2.3445 -3.2 0.05
v  -2.3445 -3.2 2.5
v  -4.625 -4.625 -0.05
v  4.625 -4.625 0.05
v  -4.625 -4.625 0.05
v  4.625 -4.625 -0.05
v  4.625 4.625 0.05
v  4.625 4.625 -0.05
v  -4.625 4.625 0.05
v  -4.625 4.625 -0.05

# 0 UV coordinates

# 11 vertex normals
vn 0 1 0
vn 1 0 0
vn 0 -1 0
vn -1 0 0
vn 7.91104e-17 0 1
vn -1.72231e-17 -2.80752e-17 1
vn 0 1.26604e-16 1
vn -7.69837e-17 0 1
vn -6.92691e-17 0 1
vn 0 0 1
vn 0 0 -1

# Mesh '<STL_BINARY>' with 60 faces
g <STL_BINARY>
usemtl DefaultMaterial
f  1//1 2//1 3//1
f  1//1 4//1 2//1
f  5//2 3//2 6//2
f  5//2 1//2 3//2
f  7//3 6//3 8//3
f  7//3 5//3 6//3
f  9//2 8//2 10//2
f  9//2 7//2 8//2
f  11//1 10//1 12//1
f  11//1 9//1 10//1
f  13//2 12//2 14//2
f  13//2 11//2 12//2
f  15//3 14//3 16//3
f  15//3 13//3 14//3
f  17//2 16//2 18//2
f  17//2 15//2 16//2
f  19//1 18//1 20//1
f  19//1 17//1 18//1
f  21//2 20//2 22//2
f  21//2 19//2 20//2
f  23//3 22//3 24//3
f  23//3 21//3 22//3
f  4//4 24//4 2//4
f  4//4 23//4 24//4
f  25//3 26//3 27//3
f  25//3 28//3 26//3
f  28//2 29//2 26//2
f  28//2 30//2 29//2
f  30//1 31//1 29//1
f  30//1 32//1 31//1
f  32//4 27//4 31//4
f  32//4 25//4 27//4
f  23//5 31//5 27//5
f  23//5 4//6 31//5
f  21//7 23//5 27//5
f  31//5 1//8 29//9
f  31//5 4//6 1//8
f  29//9 1//8 5//10
f  29//9 13//10 26//9
f  29//9 11//9 13//10
f  29//9 5//10 11//9
f  11//9 5//10 7//10
f  11//9 7//10 9//10
f  13//10 17//10 19//10
f  13//10 15//10 17//10
f  26//9 13//10 19//10
f  21//7 27//5 26//9
f  26//9 19//10 21//7
f  32//11 28//11 25//11
f  32//11 30//11 28//11
f  8//10 3//10 2//10
f  8//10 6//10 3//10
f  2//10 10//10 8//10
f  2//10 16//10 10//10
f  2//10 24//10 16//10
f  16//10 12//10 10//10
f  16//10 24//10 18//10
f  16//10 14//10 12//10
f  18//10 24//10 22//10
f  18//10 22//10 20//10

