# File produced by Open Asset Import Library (http://www.assimp.sf.net)
# (assimp v3.1.187496374)

mtllib F.obj.mtl

# 28 vertex positions
v  2.2185 3.226 0.05
v  -2.2185 3.226 1.5
v  2.2185 3.226 1.5
v  -2.2185 3.226 0.05
v  2.2185 2.254 0.05
v  2.2185 2.254 1.5
v  -1.0935 2.254 0.05
v  -1.0935 2.254 1.5
v  -1.0935 0.571 0.05
v  -1.0935 0.571 1.5
v  1.8135 0.571 0.05
v  1.8135 0.571 1.5
v  1.8135 -0.347 0.05
v  1.8135 -0.347 1.5
v  -1.0935 -0.347 0.05
v  -1.0935 -0.347 1.5
v  -1.0935 -3.2 0.05
v  -1.0935 -3.2 1.5
v  -2.2185 -3.2 0.05
v  -2.2185 -3.2 1.5
v  -4.625 -14.3819 -0.05
v  4.625 -14.3819 0.05
v  -4.625 -14.3819 0.05
v  4.625 -14.3819 -0.05
v  4.625 4.61806 0.05
v  4.625 4.61806 -0.05
v  -4.625 4.61806 0.05
v  -4.625 4.61806 -0.05

# 0 UV coordinates

# 10 vertex normals
vn 0 1 0
vn 1 0 0
vn 0 -1 0
vn -1 0 0
vn 0 0 1
vn -9.38322e-18 4.6129e-17 1
vn 1.48082e-17 0 1
vn 0 -3.72327e-18 1
vn -1.73004e-17 0 1
vn 0 0 -1

# Mesh '<STL_BINARY>' with 52 faces
g <STL_BINARY>
usemtl DefaultMaterial
f  1//1 2//1 3//1
f  1//1 4//1 2//1
f  5//2 3//2 6//2
f  5//2 1//2 3//2
f  7//3 6//3 8//3
f  7//3 5//3 6//3
f  9//2 8//2 10//2
f  9//2 7//2 8//2
f  11//1 10//1 12//1
f  11//1 9//1 10//1
f  13//2 12//2 14//2
f  13//2 11//2 12//2
f  15//3 14//3 16//3
f  15//3 13//3 14//3
f  17//2 16//2 18//2
f  17//2 15//2 16//2
f  19//3 18//3 20//3
f  19//3 17//3 18//3
f  4//4 20//4 2//4
f  4//4 19//4 20//4
f  21//3 22//3 23//3
f  21//3 24//3 22//3
f  24//2 25//2 22//2
f  24//2 26//2 25//2
f  26//1 27//1 25//1
f  26//1 28//1 27//1
f  28//4 23//4 27//4
f  28//4 21//4 23//4
f  11//5 7//5 9//5
f  11//5 5//5 7//5
f  25//6 11//5 13//5
f  25//6 5//5 11//5
f  25//6 1//6 5//5
f  25//6 4//6 1//6
f  25//6 27//5 4//6
f  25//6 13//5 22//7
f  17//5 13//5 15//5
f  22//7 13//5 17//5
f  22//7 17//5 23//8
f  23//8 17//5 19//9
f  19//9 27//5 23//8
f  19//9 4//6 27//5
f  28//10 24//10 21//10
f  28//10 26//10 24//10
f  8//5 3//5 2//5
f  8//5 6//5 3//5
f  2//5 10//5 8//5
f  2//5 16//5 10//5
f  2//5 20//5 16//5
f  16//5 12//5 10//5
f  16//5 14//5 12//5
f  16//5 20//5 18//5

