# File produced by Open Asset Import Library (http://www.assimp.sf.net)
# (assimp v3.1.187496374)

mtllib H.obj.mtl

# 32 vertex positions
v  -1.4625 3.226 0.05
v  -2.5875 3.226 1.5
v  -1.4625 3.226 1.5
v  -2.5875 3.226 0.05
v  -1.4625 0.67 0.05
v  -1.4625 0.67 1.5
v  1.4625 0.67 0.05
v  1.4625 0.67 1.5
v  1.4625 3.226 0.05
v  1.4625 3.226 1.5
v  2.5875 3.226 0.05
v  2.5875 3.226 1.5
v  2.5875 -3.2 0.05
v  2.5875 -3.2 1.5
v  1.4625 -3.2 0.05
v  1.4625 -3.2 1.5
v  1.4625 -0.302 0.05
v  1.4625 -0.302 1.5
v  -1.4625 -0.302 0.05
v  -1.4625 -0.302 1.5
v  -1.4625 -3.2 0.05
v  -1.4625 -3.2 1.5
v  -2.5875 -3.2 0.05
v  -2.5875 -3.2 1.5
v  -4.61806 -4.625 -0.05
v  14.3819 -4.625 0.05
v  -4.61806 -4.625 0.05
v  14.3819 -4.625 -0.05
v  14.3819 4.625 0.05
v  14.3819 4.625 -0.05
v  -4.61806 4.625 0.05
v  -4.61806 4.625 -0.05

# 0 UV coordinates

# 11 vertex normals
vn 0 1 0
vn 1 0 0
vn -1 0 0
vn 0 -1 0
vn -2.05034e-17 0 1
vn 4.46379e-18 6.47889e-18 1
vn 0 -2.92164e-17 1
vn 3.52991e-18 0 1
vn 0 2.97594e-17 1
vn 0 0 1
vn 0 0 -1

# Mesh '<STL_BINARY>' with 60 faces
g <STL_BINARY>
usemtl DefaultMaterial
f  1//1 2//1 3//1
f  1//1 4//1 2//1
f  5//2 3//2 6//2
f  5//2 1//2 3//2
f  7//1 6//1 8//1
f  7//1 5//1 6//1
f  9//3 8//3 10//3
f  9//3 7//3 8//3
f  11//1 10//1 12//1
f  11//1 9//1 10//1
f  13//2 12//2 14//2
f  13//2 11//2 12//2
f  15//4 14//4 16//4
f  15//4 13//4 14//4
f  17//3 16//3 18//3
f  17//3 15//3 16//3
f  19//4 18//4 20//4
f  19//4 17//4 18//4
f  21//2 20//2 22//2
f  21//2 19//2 20//2
f  23//4 22//4 24//4
f  23//4 21//4 22//4
f  4//3 24//3 2//3
f  4//3 23//3 24//3
f  25//4 26//4 27//4
f  25//4 28//4 26//4
f  28//2 29//2 26//2
f  28//2 30//2 29//2
f  30//1 31//1 29//1
f  30//1 32//1 31//1
f  32//3 27//3 31//3
f  32//3 25//3 27//3
f  23//5 31//5 27//5
f  23//5 4//6 31//5
f  27//5 21//7 23//5
f  31//5 11//8 29//8
f  31//5 9//9 11//8
f  31//5 4//6 1//10
f  31//5 1//10 9//9
f  29//8 11//8 13//8
f  29//8 13//8 26//8
f  13//8 27//5 26//8
f  13//8 15//7 27//5
f  27//5 15//7 21//7
f  15//7 19//10 21//7
f  15//7 17//10 19//10
f  1//10 7//10 9//9
f  1//10 5//10 7//10
f  32//11 28//11 25//11
f  32//11 30//11 28//11
f  2//10 6//10 3//10
f  2//10 20//10 6//10
f  2//10 24//10 20//10
f  20//10 8//10 6//10
f  20//10 18//10 8//10
f  20//10 24//10 22//10
f  8//10 12//10 10//10
f  18//10 12//10 8//10
f  18//10 14//10 12//10
f  14//10 18//10 16//10

