# File produced by Open Asset Import Library (http://www.assimp.sf.net)
# (assimp v3.1.187496374)

mtllib I.obj.mtl

# 16 vertex positions
v  0.5625 3.226 0.05
v  -0.5625 3.226 2.5
v  0.5625 3.226 2.5
v  -0.5625 3.226 0.05
v  0.5625 -3.2 0.05
v  0.5625 -3.2 2.5
v  -0.5625 -3.2 0.05
v  -0.5625 -3.2 2.5
v  -4.625 -4.625 -0.05
v  4.625 -4.625 0.05
v  -4.625 -4.625 0.05
v  4.625 -4.625 -0.05
v  4.625 4.625 0.05
v  4.625 4.625 -0.05
v  -4.625 4.625 0.05
v  -4.625 4.625 -0.05

# 0 UV coordinates

# 9 vertex normals
vn 0 1 0
vn 1 0 0
vn 0 -1 0
vn -1 0 0
vn -4.44089e-17 0 1
vn -9.66824e-18 -2.80752e-17 1
vn 4.44089e-17 0 1
vn 0 0 -1
vn 0 0 1

# Mesh '<STL_BINARY>' with 28 faces
g <STL_BINARY>
usemtl DefaultMaterial
f  1//1 2//1 3//1
f  1//1 4//1 2//1
f  5//2 3//2 6//2
f  5//2 1//2 3//2
f  7//3 6//3 8//3
f  7//3 5//3 6//3
f  4//4 8//4 2//4
f  4//4 7//4 8//4
f  9//3 10//3 11//3
f  9//3 12//3 10//3
f  12//2 13//2 10//2
f  12//2 14//2 13//2
f  14//1 15//1 13//1
f  14//1 16//1 15//1
f  16//4 11//4 15//4
f  16//4 9//4 11//4
f  13//5 5//5 10//5
f  13//5 1//5 5//5
f  13//5 4//6 1//5
f  13//5 15//7 4//6
f  5//5 11//7 10//5
f  5//5 7//7 11//7
f  7//7 15//7 11//7
f  7//7 4//6 15//7
f  16//8 12//8 9//8
f  16//8 14//8 12//8
f  2//9 6//9 3//9
f  2//9 8//9 6//9

