# File produced by Open Asset Import Library (http://www.assimp.sf.net)
# (assimp v3.1.187496374)

mtllib J.obj.mtl

# 168 vertex positions
v  1.998 -1.54625 0.05
v  2.016 -1.13 1.5
v  1.998 -1.54625 1.5
v  2.016 -1.13 0.05
v  1.97657 -1.74125 0.05
v  1.97657 -1.74125 1.5
v  1.944 -1.949 0.05
v  1.944 -1.949 1.5
v  1.90513 -2.11932 0.05
v  1.90513 -2.11932 1.5
v  1.85189 -2.2818 0.05
v  1.85189 -2.2818 1.5
v  1.79101 -2.4227 0.05
v  1.79101 -2.4227 1.5
v  1.72607 -2.54398 0.05
v  1.72607 -2.54398 1.5
v  1.6515 -2.66 0.05
v  1.6515 -2.66 1.5
v  1.57587 -2.75757 0.05
v  1.57587 -2.75757 1.5
v  1.4901 -2.8487 0.05
v  1.4901 -2.8487 1.5
v  1.3942 -2.93337 0.05
v  1.3942 -2.93337 1.5
v  1.27419 -3.02091 0.05
v  1.27419 -3.02091 1.5
v  1.15674 -3.09188 0.05
v  1.15674 -3.09188 1.5
v  1.0125 -3.164 0.05
v  1.0125 -3.164 1.5
v  0.871553 -3.21964 0.05
v  0.871553 -3.21964 1.5
v  0.696188 -3.27067 0.05
v  0.696188 -3.27067 1.5
v  0.457697 -3.31641 0.05
v  0.457697 -3.31641 1.5
v  0.192634 -3.34385 0.05
v  0.192634 -3.34385 1.5
v  -0.099 -3.353 0.05
v  -0.099 -3.353 1.5
v  -0.374285 -3.34065 0.05
v  -0.374285 -3.34065 1.5
v  -0.591149 -3.31041 0.05
v  -0.591149 -3.31041 1.5
v  -0.758405 -3.27135 0.05
v  -0.758405 -3.27135 1.5
v  -0.868201 -3.23651 0.05
v  -0.868201 -3.23651 1.5
v  -0.972 -3.1955 0.05
v  -0.972 -3.1955 1.5
v  -1.1243 -3.12054 0.05
v  -1.1243 -3.12054 1.5
v  -1.25217 -3.04256 0.05
v  -1.25217 -3.04256 1.5
v  -1.36997 -2.95523 0.05
v  -1.36997 -2.95523 1.5
v  -1.46736 -2.86862 0.05
v  -1.46736 -2.86862 1.5
v  -1.566 -2.7635 0.05
v  -1.566 -2.7635 1.5
v  -1.65456 -2.64956 0.05
v  -1.65456 -2.64956 1.5
v  -1.73304 -2.52734 0.05
v  -1.73304 -2.52734 1.5
v  -1.80773 -2.38333 0.05
v  -1.80773 -2.38333 1.5
v  -1.85976 -2.25806 0.05
v  -1.85976 -2.25806 1.5
v  -1.908 -2.111 0.05
v  -1.908 -2.111 1.5
v  -1.96308 -1.87853 0.05
v  -1.96308 -1.87853 1.5
v  -2.0004 -1.61806 0.05
v  -2.0004 -1.61806 1.5
v  -2.01168 -1.46588 0.05
v  -2.01168 -1.46588 1.5
v  -2.016 -1.292 0.05
v  -2.016 -1.292 1.5
v  -2.016 -0.95 0.05
v  -2.016 -0.95 1.5
v  -0.891 -0.95 0.05
v  -0.891 -0.95 1.5
v  -0.891 -1.283 0.05
v  -0.891 -1.283 1.5
v  -0.880373 -1.53226 0.05
v  -0.880373 -1.53226 1.5
v  -0.855281 -1.7182 0.05
v  -0.855281 -1.7182 1.5
v  -0.820078 -1.86862 0.05
v  -0.820078 -1.86862 1.5
v  -0.784433 -1.97452 0.05
v  -0.784433 -1.97452 1.5
v  -0.748123 -2.05758 0.05
v  -0.748123 -2.05758 1.5
v  -0.7065 -2.1335 0.05
v  -0.7065 -2.1335 1.5
v  -0.674878 -2.17981 0.05
v  -0.674878 -2.17981 1.5
v  -0.63905 -2.22226 0.05
v  -0.63905 -2.22226 1.5
v  -0.599018 -2.26085 0.05
v  -0.599018 -2.26085 1.5
v  -0.554782 -2.29559 0.05
v  -0.554782 -2.29559 1.5
v  -0.50634 -2.32646 0.05
v  -0.50634 -2.32646 1.5
v  -0.453694 -2.35347 0.05
v  -0.453694 -2.35347 1.5
v  -0.381973 -2.38182 0.05
v  -0.381973 -2.38182 1.5
v  -0.303682 -2.40413 0.05
v  -0.303682 -2.40413 1.5
v  -0.20106 -2.42294 0.05
v  -0.20106 -2.42294 1.5
v  -0.108315 -2.43198 0.05
v  -0.108315 -2.43198 1.5
v  -0.009 -2.435 0.05
v  -0.009 -2.435 1.5
v  0.134791 -2.42865 0.05
v  0.134791 -2.42865 1.5
v  0.246247 -2.4131 0.05
v  0.246247 -2.4131 1.5
v  0.330811 -2.39301 0.05
v  0.330811 -2.39301 1.5
v  0.385508 -2.37509 0.05
v  0.385508 -2.37509 1.5
v  0.4365 -2.354 0.05
v  0.4365 -2.354 1.5
v  0.497347 -2.32236 0.05
v  0.497347 -2.32236 1.5
v  0.547517 -2.29008 0.05
v  0.547517 -2.29008 1.5
v  0.594 -2.25388 0.05
v  0.594 -2.25388 1.5
v  0.636797 -2.21376 0.05
v  0.636797 -2.21376 1.5
v  0.675907 -2.16972 0.05
v  0.675907 -2.16972 1.5
v  0.69408 -2.14623 0.05
v  0.69408 -2.14623 1.5
v  0.7155 -2.1155 0.05
v  0.7155 -2.1155 1.5
v  0.750573 -2.05632 0.05
v  0.750573 -2.05632 1.5
v  0.784413 -1.98475 0.05
v  0.784413 -1.98475 1.5
v  0.8154 -1.89896 0.05
v  0.8154 -1.89896 1.5
v  0.8379 -1.81454 0.05
v  0.8379 -1.81454 1.5
v  0.855 -1.724 0.05
v  0.855 -1.724 1.5
v  0.882 -1.47425 0.05
v  0.882 -1.47425 1.5
v  0.891 -1.193 0.05
v  0.891 -1.193 1.5
v  0.891 3.226 0.05
v  0.891 3.226 1.5
v  2.016 3.226 0.05
v  2.016 3.226 1.5
v  -14.3819 -4.625 -0.05
v  4.61806 -4.625 0.05
v  -14.3819 -4.625 0.05
v  4.61806 -4.625 -0.05
v  4.61806 4.625 0.05
v  4.61806 4.625 -0.05
v  -14.3819 4.625 0.05
v  -14.3819 4.625 -0.05

# 0 UV coordinates

# 118 vertex normals
vn 0.999066 -0.0432029 0
vn 0.994017 -0.109223 0
vn 0.98793 -0.1549 0
vn 0.974937 -0.222483 0
vn 0.950281 -0.311395 0
vn 0.917989 -0.396607 0
vn 0.881546 -0.472097 0
vn 0.84124 -0.540663 0
vn 0.790381 -0.612615 0
vn 0.728186 -0.685379 0
vn 0.661845 -0.749641 0
vn 0.589338 -0.807886 0
vn 0.517148 -0.855896 0
vn 0.447214 -0.894427 0
vn 0.367193 -0.930145 0
vn 0.279404 -0.960174 0
vn 0.188348 -0.982102 0
vn 0.102983 -0.994683 0
vn 0.0313513 -0.999508 0
vn -0.0448103 -0.998996 0
vn -0.138106 -0.990417 0
vn -0.227415 -0.973798 0
vn -0.302445 -0.953167 0
vn -0.367475 -0.930033 0
vn -0.441606 -0.897209 0
vn -0.520633 -0.853781 0
vn -0.595591 -0.803287 0
vn -0.664503 -0.747286 0
vn -0.729226 -0.684273 0
vn -0.789554 -0.613681 0
vn -0.84146 -0.540319 0
vn -0.887714 -0.460396 0
vn -0.923504 -0.383589 0
vn -0.950184 -0.311688 0
vn -0.97306 -0.230551 0
vn -0.989888 -0.14185 0
vn -0.997267 -0.0738873 0
vn -0.999691 -0.0248371 0
vn -1 0 0
vn 0 1 0
vn 1 0 0
vn 0.999092 0.0425956 0
vn 0.991017 0.133735 0
vn 0.97369 0.227876 0
vn 0.947755 0.319 0
vn 0.916261 0.400581 0
vn 0.876873 0.480721 0
vn 0.825836 0.56391 0
vn 0.764212 0.644966 0
vn 0.69404 0.719937 0
vn 0.61755 0.786532 0
vn 0.537459 0.84329 0
vn 0.456534 0.889706 0
vn 0.367504 0.930022 0
vn 0.274064 0.961711 0
vn 0.180325 0.983607 0
vn 0.097065 0.995278 0
vn 0.030344 0.999539 0
vn -0.044121 0.999026 0
vn -0.138196 0.990405 0
vn -0.231117 0.972926 0
vn -0.311298 0.950312 0
vn -0.382231 0.924067 0
vn -0.46133 0.887228 0
vn -0.541148 0.840927 0
vn -0.614448 0.788957 0
vn -0.683908 0.729568 0
vn -0.747679 0.66406 0
vn -0.79089 0.611958 0
vn -0.820415 0.571768 0
vn -0.860265 0.509848 0
vn -0.904034 0.427461 0
vn -0.940533 0.339703 0
vn -0.966269 0.257534 0
vn -0.982628 0.185586 0
vn -0.994207 0.107482 0
vn -0.999488 0.0319836 0
vn 0 -1 0
vn 0 -3.16703e-17 1
vn 9.19675e-19 -2.93201e-17 1
vn -9.86977e-18 -7.07804e-17 1
vn 2.47822e-18 -2.39365e-17 1
vn 3.79046e-18 -1.97645e-17 1
vn 4.85462e-18 -1.66829e-17 1
vn 5.69816e-18 -1.44342e-17 1
vn 1.03916e-17 -5.56504e-18 1
vn 6.37809e-18 -1.27562e-17 1
vn 6.94042e-18 -1.14866e-17 1
vn 7.51125e-18 -1.02967e-17 1
vn 8.10006e-18 -9.17455e-18 1
vn 8.67392e-18 -8.16401e-18 1
vn 9.27328e-18 -7.18761e-18 1
vn 1.10184e-17 -4.76039e-18 1
vn 1.17808e-17 -3.86042e-18 1
vn 1.26748e-17 -2.89243e-18 1
vn 1.34578e-17 -2.11007e-18 1
vn 1.40732e-17 -1.54637e-18 1
vn 1.26969e-16 9.45295e-17 1
vn 0 2.97594e-17 1
vn 0 0 1
vn -3.36678e-18 0 1
vn -3.34438e-18 -8.30902e-20 1
vn -3.3031e-18 -2.44726e-19 1
vn -3.24945e-18 -4.65644e-19 1
vn -3.18551e-18 -7.54756e-19 1
vn -3.13066e-18 -1.02695e-18 1
vn -3.08274e-18 -1.28045e-18 1
vn -3.03079e-18 -1.57186e-18 1
vn -2.97469e-18 -1.91011e-18 1
vn -2.91902e-18 -2.26881e-18 1
vn -2.85891e-18 -2.68267e-18 1
vn -2.7961e-18 -3.14444e-18 1
vn -2.72755e-18 -3.6787e-18 1
vn -2.64763e-18 -4.34181e-18 1
vn -2.55196e-18 -5.18481e-18 1
vn -2.44502e-18 -6.18804e-18 1
vn -2.32724e-18 -7.33437e-18 1
vn 0 0 -1

# Mesh '<STL_BINARY>' with 332 faces
g <STL_BINARY>
usemtl DefaultMaterial
f  1//1 2//1 3//1
f  1//1 4//1 2//1
f  5//2 3//2 6//2
f  5//2 1//2 3//2
f  7//3 6//3 8//3
f  7//3 5//3 6//3
f  9//4 8//4 10//4
f  9//4 7//4 8//4
f  11//5 10//5 12//5
f  11//5 9//5 10//5
f  13//6 12//6 14//6
f  13//6 11//6 12//6
f  15//7 14//7 16//7
f  15//7 13//7 14//7
f  17//8 16//8 18//8
f  17//8 15//8 16//8
f  19//9 18//9 20//9
f  19//9 17//9 18//9
f  21//10 20//10 22//10
f  21//10 19//10 20//10
f  23//11 22//11 24//11
f  23//11 21//11 22//11
f  25//12 24//12 26//12
f  25//12 23//12 24//12
f  27//13 26//13 28//13
f  27//13 25//13 26//13
f  29//14 28//14 30//14
f  29//14 27//14 28//14
f  31//15 30//15 32//15
f  31//15 29//15 30//15
f  33//16 32//16 34//16
f  33//16 31//16 32//16
f  35//17 34//17 36//17
f  35//17 33//17 34//17
f  37//18 36//18 38//18
f  37//18 35//18 36//18
f  39//19 38//19 40//19
f  39//19 37//19 38//19
f  41//20 40//20 42//20
f  41//20 39//20 40//20
f  43//21 42//21 44//21
f  43//21 41//21 42//21
f  45//22 44//22 46//22
f  45//22 43//22 44//22
f  47//23 46//23 48//23
f  47//23 45//23 46//23
f  49//24 48//24 50//24
f  49//24 47//24 48//24
f  51//25 50//25 52//25
f  51//25 49//25 50//25
f  53//26 52//26 54//26
f  53//26 51//26 52//26
f  55//27 54//27 56//27
f  55//27 53//27 54//27
f  57//28 56//28 58//28
f  57//28 55//28 56//28
f  59//29 58//29 60//29
f  59//29 57//29 58//29
f  61//30 60//30 62//30
f  61//30 59//30 60//30
f  63//31 62//31 64//31
f  63//31 61//31 62//31
f  65//32 64//32 66//32
f  65//32 63//32 64//32
f  67//33 66//33 68//33
f  67//33 65//33 66//33
f  69//34 68//34 70//34
f  69//34 67//34 68//34
f  71//35 70//35 72//35
f  71//35 69//35 70//35
f  73//36 72//36 74//36
f  73//36 71//36 72//36
f  75//37 74//37 76//37
f  75//37 73//37 74//37
f  77//38 76//38 78//38
f  77//38 75//38 76//38
f  79//39 78//39 80//39
f  79//39 77//39 78//39
f  81//40 80//40 82//40
f  81//40 79//40 80//40
f  83//41 82//41 84//41
f  83//41 81//41 82//41
f  85//42 84//42 86//42
f  85//42 83//42 84//42
f  87//43 86//43 88//43
f  87//43 85//43 86//43
f  89//44 88//44 90//44
f  89//44 87//44 88//44
f  91//45 90//45 92//45
f  91//45 89//45 90//45
f  93//46 92//46 94//46
f  93//46 91//46 92//46
f  95//47 94//47 96//47
f  95//47 93//47 94//47
f  97//48 96//48 98//48
f  97//48 95//48 96//48
f  99//49 98//49 100//49
f  99//49 97//49 98//49
f  101//50 100//50 102//50
f  101//50 99//50 100//50
f  103//51 102//51 104//51
f  103//51 101//51 102//51
f  105//52 104//52 106//52
f  105//52 103//52 104//52
f  107//53 106//53 108//53
f  107//53 105//53 106//53
f  109//54 108//54 110//54
f  109//54 107//54 108//54
f  111//55 110//55 112//55
f  111//55 109//55 110//55
f  113//56 112//56 114//56
f  113//56 111//56 112//56
f  115//57 114//57 116//57
f  115//57 113//57 114//57
f  117//58 116//58 118//58
f  117//58 115//58 116//58
f  119//59 118//59 120//59
f  119//59 117//59 118//59
f  121//60 120//60 122//60
f  121//60 119//60 120//60
f  123//61 122//61 124//61
f  123//61 121//61 122//61
f  125//62 124//62 126//62
f  125//62 123//62 124//62
f  127//63 126//63 128//63
f  127//63 125//63 126//63
f  129//64 128//64 130//64
f  129//64 127//64 128//64
f  131//65 130//65 132//65
f  131//65 129//65 130//65
f  133//66 132//66 134//66
f  133//66 131//66 132//66
f  135//67 134//67 136//67
f  135//67 133//67 134//67
f  137//68 136//68 138//68
f  137//68 135//68 136//68
f  139//69 138//69 140//69
f  139//69 137//69 138//69
f  141//70 140//70 142//70
f  141//70 139//70 140//70
f  143//71 142//71 144//71
f  143//71 141//71 142//71
f  145//72 144//72 146//72
f  145//72 143//72 144//72
f  147//73 146//73 148//73
f  147//73 145//73 146//73
f  149//74 148//74 150//74
f  149//74 147//74 148//74
f  151//75 150//75 152//75
f  151//75 149//75 150//75
f  153//76 152//76 154//76
f  153//76 151//76 152//76
f  155//77 154//77 156//77
f  155//77 153//77 154//77
f  157//39 156//39 158//39
f  157//39 155//39 156//39
f  159//40 158//40 160//40
f  159//40 157//40 158//40
f  4//41 160//41 2//41
f  4//41 159//41 160//41
f  161//78 162//78 163//78
f  161//78 164//78 162//78
f  164//41 165//41 162//41
f  164//41 166//41 165//41
f  166//40 167//40 165//40
f  166//40 168//40 167//40
f  168//39 163//39 167//39
f  168//39 161//39 163//39
f  162//79 43//79 163//79
f  162//79 37//80 39//80
f  162//79 41//81 43//79
f  162//79 39//80 41//81
f  162//79 35//82 37//80
f  162//79 33//83 35//82
f  162//79 31//84 33//83
f  162//79 29//85 31//84
f  162//79 13//86 15//86
f  162//79 27//87 29//85
f  162//79 25//88 27//87
f  162//79 23//89 25//88
f  162//79 21//90 23//89
f  162//79 19//91 21//90
f  162//79 17//92 19//91
f  162//79 15//86 17//92
f  162//79 11//93 13//86
f  162//79 9//94 11//93
f  162//79 7//95 9//94
f  162//79 5//96 7//95
f  162//79 1//97 5//96
f  162//79 4//98 1//97
f  165//99 4//98 162//79
f  165//99 159//99 4//98
f  157//99 165//99 167//99
f  157//99 159//99 165//99
f  81//100 155//100 157//99
f  157//99 79//100 81//100
f  79//100 157//99 167//99
f  79//100 167//99 163//79
f  163//79 77//101 79//100
f  163//79 75//102 77//101
f  163//79 73//103 75//102
f  163//79 71//104 73//103
f  163//79 69//105 71//104
f  163//79 67//106 69//105
f  163//79 65//107 67//106
f  163//79 63//108 65//107
f  163//79 61//109 63//108
f  163//79 59//110 61//109
f  163//79 57//111 59//110
f  163//79 55//112 57//111
f  163//79 53//113 55//112
f  163//79 51//114 53//113
f  163//79 49//115 51//114
f  163//79 47//116 49//115
f  163//79 45//117 47//116
f  163//79 43//79 45//117
f  81//100 83//100 155//100
f  83//100 153//100 155//100
f  83//100 85//100 153//100
f  85//100 151//100 153//100
f  85//100 87//100 151//100
f  151//100 119//100 149//100
f  151//100 117//100 119//100
f  151//100 87//100 117//100
f  117//100 87//100 89//100
f  117//100 89//100 115//100
f  89//100 113//100 115//100
f  89//100 91//100 113//100
f  91//100 111//100 113//100
f  91//100 93//100 111//100
f  93//100 109//100 111//100
f  93//100 107//100 109//100
f  107//100 93//100 95//100
f  107//100 95//100 105//100
f  95//100 103//100 105//100
f  95//100 101//100 103//100
f  101//100 95//100 97//100
f  101//100 97//100 99//100
f  119//100 147//100 149//100
f  119//100 121//100 147//100
f  121//100 145//100 147//100
f  121//100 123//100 145//100
f  123//100 143//100 145//100
f  123//100 125//100 143//100
f  143//100 127//100 141//100
f  143//100 125//100 127//100
f  141//100 127//100 129//100
f  141//100 129//100 139//100
f  139//100 129//100 131//100
f  139//100 131//100 137//100
f  137//100 131//100 133//100
f  137//100 133//100 135//100
f  168//118 164//118 161//118
f  168//118 166//118 164//118
f  118//100 38//100 120//100
f  118//100 40//100 38//100
f  40//100 118//100 116//100
f  122//100 38//100 36//100
f  122//100 120//100 38//100
f  36//100 124//100 122//100
f  124//100 36//100 34//100
f  124//100 34//100 126//100
f  128//100 34//100 32//100
f  128//100 126//100 34//100
f  130//100 128//100 32//100
f  130//100 32//100 30//100
f  132//100 130//100 30//100
f  132//100 30//100 28//100
f  134//100 132//100 28//100
f  134//100 28//100 26//100
f  136//100 134//100 26//100
f  136//100 26//100 24//100
f  138//100 136//100 24//100
f  138//100 24//100 22//100
f  140//100 138//100 22//100
f  140//100 22//100 20//100
f  142//100 140//100 20//100
f  142//100 20//100 18//100
f  144//100 142//100 18//100
f  144//100 18//100 16//100
f  146//100 144//100 16//100
f  146//100 16//100 14//100
f  146//100 12//100 148//100
f  146//100 14//100 12//100
f  148//100 12//100 10//100
f  148//100 10//100 150//100
f  150//100 10//100 8//100
f  150//100 8//100 152//100
f  6//100 152//100 8//100
f  154//100 152//100 6//100
f  154//100 6//100 3//100
f  156//100 154//100 3//100
f  156//100 3//100 2//100
f  158//100 156//100 2//100
f  158//100 2//100 160//100
f  40//100 116//100 114//100
f  40//100 114//100 42//100
f  42//100 114//100 112//100
f  42//100 112//100 44//100
f  44//100 112//100 110//100
f  44//100 110//100 46//100
f  46//100 110//100 108//100
f  46//100 108//100 48//100
f  48//100 108//100 106//100
f  48//100 106//100 50//100
f  50//100 106//100 104//100
f  50//100 104//100 52//100
f  52//100 104//100 102//100
f  52//100 102//100 54//100
f  54//100 102//100 100//100
f  54//100 100//100 56//100
f  56//100 100//100 98//100
f  56//100 98//100 58//100
f  58//100 98//100 96//100
f  58//100 96//100 60//100
f  60//100 96//100 62//100
f  62//100 96//100 94//100
f  62//100 94//100 64//100
f  64//100 94//100 92//100
f  64//100 92//100 66//100
f  92//100 68//100 66//100
f  92//100 90//100 68//100
f  68//100 90//100 70//100
f  70//100 90//100 88//100
f  70//100 88//100 72//100
f  72//100 88//100 86//100
f  72//100 86//100 74//100
f  74//100 86//100 76//100
f  76//100 86//100 84//100
f  76//100 84//100 78//100
f  84//100 80//100 78//100
f  84//100 82//100 80//100

