# File produced by Open Asset Import Library (http://www.assimp.sf.net)
# (assimp v3.1.187496374)

mtllib K.obj.mtl

# 32 vertex positions
v  -1.6515 3.226 0.05
v  -2.7765 3.226 1.5
v  -1.6515 3.226 1.5
v  -2.7765 3.226 0.05
v  -1.6515 0.301 0.05
v  -1.6515 0.301 1.5
v  1.2105 3.226 0.05
v  1.2105 3.226 1.5
v  2.5965 3.226 0.05
v  2.5965 3.226 1.5
v  0.0315 0.661 0.05
v  0.0315 0.661 1.5
v  2.7765 -3.2 0.05
v  2.7765 -3.2 1.5
v  1.3725 -3.2 0.05
v  1.3725 -3.2 1.5
v  -0.7335 -0.131 0.05
v  -0.7335 -0.131 1.5
v  -1.6515 -1.04 0.05
v  -1.6515 -1.04 1.5
v  -1.6515 -3.2 0.05
v  -1.6515 -3.2 1.5
v  -2.7765 -3.2 0.05
v  -2.7765 -3.2 1.5
v  -4.625 -4.625 -0.05
v  4.625 -4.625 0.05
v  -4.625 -4.625 0.05
v  4.625 -4.625 -0.05
v  4.625 4.625 0.05
v  4.625 4.625 -0.05
v  -4.625 4.625 0.05
v  -4.625 4.625 -0.05

# 0 UV coordinates

# 16 vertex normals
vn 0 1 0
vn 1 0 0
vn -0.714762 0.699367 0
vn 0.707107 -0.707107 0
vn 0.815015 0.57944 0
vn 0 -1 0
vn -0.824535 -0.56581 0
vn 0.703615 -0.710581 0
vn -1 0 0
vn 0 0 1
vn 0 -2.92164e-17 1
vn 2.25228e-17 0 1
vn 0 2.97594e-17 1
vn 4.90342e-18 6.47889e-18 1
vn 2.01352e-17 5.64012e-19 1
vn 0 0 -1

# Mesh '<STL_BINARY>' with 60 faces
g <STL_BINARY>
usemtl DefaultMaterial
f  1//1 2//1 3//1
f  1//1 4//1 2//1
f  5//2 3//2 6//2
f  5//2 1//2 3//2
f  7//3 6//3 8//3
f  7//3 5//3 6//3
f  9//1 8//1 10//1
f  9//1 7//1 8//1
f  11//4 10//4 12//4
f  11//4 9//4 10//4
f  13//5 12//5 14//5
f  13//5 11//5 12//5
f  15//6 14//6 16//6
f  15//6 13//6 14//6
f  17//7 16//7 18//7
f  17//7 15//7 16//7
f  19//8 18//8 20//8
f  19//8 17//8 18//8
f  21//2 20//2 22//2
f  21//2 19//2 20//2
f  23//6 22//6 24//6
f  23//6 21//6 22//6
f  4//9 24//9 2//9
f  4//9 23//9 24//9
f  25//6 26//6 27//6
f  25//6 28//6 26//6
f  28//2 29//2 26//2
f  28//2 30//2 29//2
f  30//1 31//1 29//1
f  30//1 32//1 31//1
f  32//9 27//9 31//9
f  32//9 25//9 27//9
f  15//10 19//10 21//10
f  15//10 17//10 19//10
f  15//10 27//11 26//12
f  15//10 21//10 27//11
f  26//12 13//12 15//10
f  27//11 21//10 23//11
f  23//11 31//13 27//11
f  23//11 4//14 31//13
f  31//13 7//13 29//12
f  31//13 1//13 7//13
f  31//13 4//14 1//13
f  29//12 7//13 9//15
f  7//13 1//13 5//10
f  29//12 13//12 26//12
f  29//12 9//15 13//12
f  13//12 9//15 11//10
f  32//16 28//16 25//16
f  32//16 30//16 28//16
f  2//10 6//10 3//10
f  24//10 6//10 2//10
f  12//10 8//10 6//10
f  24//10 20//10 6//10
f  6//10 18//10 12//10
f  6//10 20//10 18//10
f  20//10 24//10 22//10
f  12//10 18//10 16//10
f  12//10 10//10 8//10
f  12//10 16//10 14//10

