# File produced by Open Asset Import Library (http://www.assimp.sf.net)
# (assimp v3.1.187496374)

mtllib L.obj.mtl

# 20 vertex positions
v  -1.071 3.226 0.05
v  -2.196 3.226 1.5
v  -1.071 3.226 1.5
v  -2.196 3.226 0.05
v  -1.071 -2.228 0.05
v  -1.071 -2.228 1.5
v  2.196 -2.228 0.05
v  2.196 -2.228 1.5
v  2.196 -3.2 0.05
v  2.196 -3.2 1.5
v  -2.196 -3.2 0.05
v  -2.196 -3.2 1.5
v  -4.625 -14.3819 -0.05
v  4.625 -14.3819 0.05
v  -4.625 -14.3819 0.05
v  4.625 -14.3819 -0.05
v  4.625 4.61806 0.05
v  4.625 4.61806 -0.05
v  -4.625 4.61806 0.05
v  -4.625 4.61806 -0.05

# 0 UV coordinates

# 10 vertex normals
vn 0 1 0
vn 1 0 0
vn 0 -1 0
vn -1 0 0
vn 1.71401e-17 0 1
vn 6.37585e-18 3.8192e-18 1
vn -1.71401e-17 0 1
vn 3.71304e-18 6.47889e-18 1
vn 0 0 1
vn 0 0 -1

# Mesh '<STL_BINARY>' with 36 faces
g <STL_BINARY>
usemtl DefaultMaterial
f  1//1 2//1 3//1
f  1//1 4//1 2//1
f  5//2 3//2 6//2
f  5//2 1//2 3//2
f  7//1 6//1 8//1
f  7//1 5//1 6//1
f  9//2 8//2 10//2
f  9//2 7//2 8//2
f  11//3 10//3 12//3
f  11//3 9//3 10//3
f  4//4 12//4 2//4
f  4//4 11//4 12//4
f  13//3 14//3 15//3
f  13//3 16//3 14//3
f  16//2 17//2 14//2
f  16//2 18//2 17//2
f  18//1 19//1 17//1
f  18//1 20//1 19//1
f  20//4 15//4 19//4
f  20//4 13//4 15//4
f  17//5 9//5 14//5
f  17//5 7//5 9//5
f  1//6 7//5 17//5
f  19//7 1//6 17//5
f  14//5 9//5 11//7
f  14//5 11//7 15//7
f  11//7 19//7 15//7
f  11//7 4//8 19//7
f  19//7 4//8 1//6
f  1//6 5//9 7//5
f  20//10 16//10 13//10
f  20//10 18//10 16//10
f  2//9 6//9 3//9
f  2//9 12//9 6//9
f  6//9 10//9 8//9
f  6//9 12//9 10//9

