# File produced by Open Asset Import Library (http://www.assimp.sf.net)
# (assimp v3.1.187496374)

mtllib M.obj.mtl

# 44 vertex positions
v  -1.7505 3.226 0.05
v  -3.3345 3.226 1.5
v  -1.7505 3.226 1.5
v  -3.3345 3.226 0.05
v  0.0225 -1.805 0.05
v  0.0225 -1.805 1.5
v  0.0405 -1.805 0.05
v  0.0405 -1.805 1.5
v  1.7685 3.226 0.05
v  1.7685 3.226 1.5
v  3.3345 3.226 0.05
v  3.3345 3.226 1.5
v  3.3345 -3.2 0.05
v  3.3345 -3.2 1.5
v  2.2635 -3.2 0.05
v  2.2635 -3.2 1.5
v  2.2635 1.759 0.05
v  2.2635 1.759 1.5
v  2.2455 1.759 0.05
v  2.2455 1.759 1.5
v  0.4635 -3.2 0.05
v  0.4635 -3.2 1.5
v  -0.4635 -3.2 0.05
v  -0.4635 -3.2 1.5
v  -2.2455 1.759 0.05
v  -2.2455 1.759 1.5
v  -2.2635 1.759 0.05
v  -2.2635 1.759 1.5
v  -2.2635 -3.2 0.05
v  -2.2635 -3.2 1.5
v  -3.3345 -3.2 0.05
v  -3.3345 -3.2 1.5
v  -4.625 -4.61806 -0.05
v  4.625 -4.61806 0.05
v  -4.625 -4.61806 0.05
v  4.625 -4.61806 -0.05
v  4.625 4.61806 -0.05
v  4.625 4.61806 0.05
v  4.625 14.3819 0.05
v  4.625 14.3819 -0.05
v  -4.625 14.3819 0.05
v  -4.625 14.3819 -0.05
v  -4.625 4.61806 0.05
v  -4.625 4.61806 -0.05

# 0 UV coordinates

# 18 vertex normals
vn 0 1 0
vn 0.943146 0.332379 0
vn -0.945768 0.324843 0
vn 1 0 0
vn 0 -1 0
vn -1 0 0
vn 0.941083 -0.338175 0
vn -0.941083 -0.338175 0
vn 0 -2.93595e-17 1
vn 0 0 1
vn -1.44837e-17 0 1
vn 6.98875e-18 6.47889e-18 1
vn -2.62837e-17 -2.43662e-17 1
vn 0 3.73194e-18 1
vn 1.4575e-17 0 1
vn 0 2.99078e-17 1
vn 3.22614e-17 0 1
vn 0 0 -1

# Mesh '<STL_BINARY>' with 84 faces
g <STL_BINARY>
usemtl DefaultMaterial
f  1//1 2//1 3//1
f  1//1 4//1 2//1
f  5//2 3//2 6//2
f  5//2 1//2 3//2
f  7//1 6//1 8//1
f  7//1 5//1 6//1
f  9//3 8//3 10//3
f  9//3 7//3 8//3
f  11//1 10//1 12//1
f  11//1 9//1 10//1
f  13//4 12//4 14//4
f  13//4 11//4 12//4
f  15//5 14//5 16//5
f  15//5 13//5 14//5
f  17//6 16//6 18//6
f  17//6 15//6 16//6
f  19//5 18//5 20//5
f  19//5 17//5 18//5
f  21//7 20//7 22//7
f  21//7 19//7 20//7
f  23//5 22//5 24//5
f  23//5 21//5 22//5
f  25//8 24//8 26//8
f  25//8 23//8 24//8
f  27//5 26//5 28//5
f  27//5 25//5 26//5
f  29//4 28//4 30//4
f  29//4 27//4 28//4
f  31//5 30//5 32//5
f  31//5 29//5 30//5
f  4//6 32//6 2//6
f  4//6 31//6 32//6
f  33//5 34//5 35//5
f  33//5 36//5 34//5
f  37//4 34//4 36//4
f  37//4 38//4 34//4
f  37//4 39//4 38//4
f  37//4 40//4 39//4
f  40//1 41//1 39//1
f  40//1 42//1 41//1
f  43//6 42//6 44//6
f  43//6 41//6 42//6
f  44//6 35//6 43//6
f  44//6 33//6 35//6
f  21//9 35//9 34//9
f  21//9 23//9 35//9
f  34//9 15//9 21//9
f  21//9 15//9 19//10
f  43//11 35//9 31//12
f  35//9 29//10 31//12
f  35//9 23//9 29//10
f  29//10 23//9 25//10
f  29//10 25//10 27//10
f  43//11 31//12 4//13
f  43//11 1//11 41//11
f  43//11 4//13 1//11
f  1//11 39//14 41//11
f  1//11 9//14 39//14
f  9//14 1//11 5//10
f  9//14 38//15 39//14
f  9//14 11//16 38//15
f  9//14 5//10 7//10
f  38//15 13//17 34//9
f  38//15 11//16 13//17
f  34//9 13//17 15//9
f  19//10 15//9 17//10
f  42//18 37//18 44//18
f  42//18 40//18 37//18
f  44//18 37//18 36//18
f  44//18 36//18 33//18
f  28//10 3//10 2//10
f  28//10 26//10 3//10
f  32//10 28//10 2//10
f  32//10 30//10 28//10
f  26//10 6//10 3//10
f  26//10 24//10 6//10
f  6//10 22//10 8//10
f  6//10 24//10 22//10
f  8//10 22//10 20//10
f  8//10 20//10 10//10
f  10//10 20//10 18//10
f  10//10 18//10 12//10
f  18//10 14//10 12//10
f  18//10 16//10 14//10

