# File produced by Open Asset Import Library (http://www.assimp.sf.net)
# (assimp v3.1.187496374)

mtllib N.obj.mtl

# 32 vertex positions
v  -1.4175 3.226 0.05
v  -2.6055 3.226 1.5
v  -1.4175 3.226 1.5
v  -2.6055 3.226 0.05
v  1.5165 -1.508 0.05
v  1.5165 -1.508 1.5
v  1.5345 -1.508 0.05
v  1.5345 -1.508 1.5
v  1.5345 3.226 0.05
v  1.5345 3.226 1.5
v  2.6055 3.226 0.05
v  2.6055 3.226 1.5
v  2.6055 -3.2 0.05
v  2.6055 -3.2 1.5
v  1.4175 -3.2 0.05
v  1.4175 -3.2 1.5
v  -1.5075 1.525 0.05
v  -1.5075 1.525 1.5
v  -1.5345 1.525 0.05
v  -1.5345 1.525 1.5
v  -1.5345 -3.2 0.05
v  -1.5345 -3.2 1.5
v  -2.6055 -3.2 0.05
v  -2.6055 -3.2 1.5
v  -4.61806 -4.625 -0.05
v  14.3819 -4.625 0.05
v  -4.61806 -4.625 0.05
v  14.3819 -4.625 -0.05
v  14.3819 4.625 0.05
v  14.3819 4.625 -0.05
v  -4.61806 4.625 0.05
v  -4.61806 4.625 -0.05

# 0 UV coordinates

# 13 vertex normals
vn 0 1 0
vn 0.84999 0.5268 0
vn -1 0 0
vn 1 0 0
vn 0 -1 0
vn -0.850265 -0.526355 0
vn 3.53531e-18 0 1
vn -2.06868e-17 0 1
vn 0 -2.92164e-17 1
vn 0 0 1
vn 4.50371e-18 6.47889e-18 1
vn 0 2.97594e-17 1
vn 0 0 -1

# Mesh '<STL_BINARY>' with 60 faces
g <STL_BINARY>
usemtl DefaultMaterial
f  1//1 2//1 3//1
f  1//1 4//1 2//1
f  5//2 3//2 6//2
f  5//2 1//2 3//2
f  7//1 6//1 8//1
f  7//1 5//1 6//1
f  9//3 8//3 10//3
f  9//3 7//3 8//3
f  11//1 10//1 12//1
f  11//1 9//1 10//1
f  13//4 12//4 14//4
f  13//4 11//4 12//4
f  15//5 14//5 16//5
f  15//5 13//5 14//5
f  17//6 16//6 18//6
f  17//6 15//6 16//6
f  19//5 18//5 20//5
f  19//5 17//5 18//5
f  21//4 20//4 22//4
f  21//4 19//4 20//4
f  23//5 22//5 24//5
f  23//5 21//5 22//5
f  4//3 24//3 2//3
f  4//3 23//3 24//3
f  25//5 26//5 27//5
f  25//5 28//5 26//5
f  28//4 29//4 26//4
f  28//4 30//4 29//4
f  30//1 31//1 29//1
f  30//1 32//1 31//1
f  32//3 27//3 31//3
f  32//3 25//3 27//3
f  29//7 13//7 26//7
f  29//7 11//7 13//7
f  31//8 11//7 29//7
f  13//7 27//8 26//7
f  13//7 15//9 27//8
f  23//8 31//8 27//8
f  27//8 21//9 23//8
f  27//8 15//9 21//9
f  21//9 15//9 17//10
f  21//9 17//10 19//10
f  23//8 4//11 31//8
f  31//8 4//11 1//10
f  9//12 1//10 5//10
f  31//8 1//10 9//12
f  31//8 9//12 11//7
f  9//12 5//10 7//10
f  32//13 28//13 25//13
f  32//13 30//13 28//13
f  20//10 3//10 2//10
f  20//10 18//10 3//10
f  24//10 20//10 2//10
f  24//10 22//10 20//10
f  18//10 6//10 3//10
f  18//10 16//10 6//10
f  16//10 8//10 6//10
f  16//10 14//10 8//10
f  8//10 12//10 10//10
f  8//10 14//10 12//10

