# File produced by Open Asset Import Library (http://www.assimp.sf.net)
# (assimp v3.1.187496374)

mtllib P.obj.mtl

# 176 vertex positions
v  0.324 3.226 0.05
v  -2.511 3.226 1.5
v  0.324 3.226 1.5
v  -2.511 3.226 0.05
v  0.687283 3.21048 0.05
v  0.687283 3.21048 1.5
v  0.967219 3.17246 0.05
v  0.967219 3.17246 1.5
v  1.17832 3.12336 0.05
v  1.17832 3.12336 1.5
v  1.3141 3.07956 0.05
v  1.3141 3.07956 1.5
v  1.44 3.028 0.05
v  1.44 3.028 1.5
v  1.63596 2.92726 0.05
v  1.63596 2.92726 1.5
v  1.78183 2.83459 0.05
v  1.78183 2.83459 1.5
v  1.91186 2.73401 0.05
v  1.91186 2.73401 1.5
v  2.01534 2.63671 0.05
v  2.01534 2.63671 1.5
v  2.05722 2.59141 0.05
v  2.05722 2.59141 1.5
v  2.106 2.533 0.05
v  2.106 2.533 1.5
v  2.20177 2.39971 0.05
v  2.20177 2.39971 1.5
v  2.28317 2.26119 0.05
v  2.28317 2.26119 1.5
v  2.35019 2.11744 0.05
v  2.35019 2.11744 1.5
v  2.38991 2.00961 0.05
v  2.38991 2.00961 1.5
v  2.4255 1.885 0.05
v  2.4255 1.885 1.5
v  2.48224 1.59969 0.05
v  2.48224 1.59969 1.5
v  2.5033 1.42006 0.05
v  2.5033 1.42006 1.5
v  2.511 1.237 0.05
v  2.511 1.237 1.5
v  2.50112 1.02932 0.05
v  2.50112 1.02932 1.5
v  2.47376 0.823398 0.05
v  2.47376 0.823398 1.5
v  2.4255 0.5935 0.05
v  2.4255 0.5935 1.5
v  2.38536 0.45688 0.05
v  2.38536 0.45688 1.5
v  2.33334 0.32422 0.05
v  2.33334 0.32422 1.5
v  2.2624 0.182868 0.05
v  2.2624 0.182868 1.5
v  2.19366 0.07078 0.05
v  2.19366 0.07078 1.5
v  2.106 -0.05 0.05
v  2.106 -0.05 1.5
v  2.02605 -0.14239 0.05
v  2.02605 -0.14239 1.5
v  1.92399 -0.239995 0.05
v  1.92399 -0.239995 1.5
v  1.8091 -0.330894 0.05
v  1.8091 -0.330894 1.5
v  1.6664 -0.424026 0.05
v  1.6664 -0.424026 1.5
v  1.55708 -0.484291 0.05
v  1.55708 -0.484291 1.5
v  1.44 -0.5405 0.05
v  1.44 -0.5405 1.5
v  1.29531 -0.597466 0.05
v  1.29531 -0.597466 1.5
v  1.11711 -0.649711 0.05
v  1.11711 -0.649711 1.5
v  0.877133 -0.696538 0.05
v  0.877133 -0.696538 1.5
v  0.612763 -0.724635 0.05
v  0.612763 -0.724635 1.5
v  0.324 -0.734 0.05
v  0.324 -0.734 1.5
v  -1.386 -0.734 0.05
v  -1.386 -0.734 1.5
v  -1.386 -3.2 0.05
v  -1.386 -3.2 1.5
v  -2.511 -3.2 0.05
v  -2.511 -3.2 1.5
v  0.261 0.184 0.05
v  -1.386 0.184 1.5
v  0.261 0.184 1.5
v  -1.386 0.184 0.05
v  0.382882 0.18953 0.05
v  0.382882 0.18953 1.5
v  0.5144 0.207522 0.05
v  0.5144 0.207522 1.5
v  0.648 0.238 0.05
v  0.648 0.238 1.5
v  0.748831 0.270643 0.05
v  0.748831 0.270643 1.5
v  0.838125 0.308875 0.05
v  0.838125 0.308875 1.5
v  0.923791 0.354883 0.05
v  0.923791 0.354883 1.5
v  1.0125 0.4135 0.05
v  1.0125 0.4135 1.5
v  1.0704 0.459864 0.05
v  1.0704 0.459864 1.5
v  1.12422 0.511478 0.05
v  1.12422 0.511478 1.5
v  1.17922 0.574982 0.05
v  1.17922 0.574982 1.5
v  1.22919 0.644966 0.05
v  1.22919 0.644966 1.5
v  1.25675 0.690066 0.05
v  1.25675 0.690066 1.5
v  1.2825 0.7375 0.05
v  1.2825 0.7375 1.5
v  1.31297 0.80495 0.05
v  1.31297 0.80495 1.5
v  1.33814 0.877698 0.05
v  1.33814 0.877698 1.5
v  1.36012 0.965875 0.05
v  1.36012 0.965875 1.5
v  1.37669 1.07171 0.05
v  1.37669 1.07171 1.5
v  1.38335 1.15073 0.05
v  1.38335 1.15073 1.5
v  1.386 1.246 0.05
v  1.386 1.246 1.5
v  1.37894 1.41393 0.05
v  1.37894 1.41393 1.5
v  1.36166 1.5444 0.05
v  1.36166 1.5444 1.5
v  1.33934 1.64361 0.05
v  1.33934 1.64361 1.5
v  1.31944 1.70792 0.05
v  1.31944 1.70792 1.5
v  1.296 1.768 0.05
v  1.296 1.768 1.5
v  1.25335 1.85494 0.05
v  1.25335 1.85494 1.5
v  1.20929 1.9268 0.05
v  1.20929 1.9268 1.5
v  1.16532 1.98562 0.05
v  1.16532 1.98562 1.5
v  1.11727 2.0389 0.05
v  1.11727 2.0389 1.5
v  1.08881 2.06611 0.05
v  1.08881 2.06611 1.5
v  1.053 2.0965 0.05
v  1.053 2.0965 1.5
v  0.99 2.14204 0.05
v  0.99 2.14204 1.5
v  0.9234 2.18146 0.05
v  0.9234 2.18146 1.5
v  0.8532 2.21476 0.05
v  0.8532 2.21476 1.5
v  0.7794 2.24194 0.05
v  0.7794 2.24194 1.5
v  0.702 2.263 0.05
v  0.702 2.263 1.5
v  0.547621 2.2907 0.05
v  0.547621 2.2907 1.5
v  0.420235 2.30339 0.05
v  0.420235 2.30339 1.5
v  0.279 2.308 0.05
v  0.279 2.308 1.5
v  -1.386 2.308 0.05
v  -1.386 2.308 1.5
v  -14.3819 -4.625 -0.05
v  4.61806 -4.625 0.05
v  -14.3819 -4.625 0.05
v  4.61806 -4.625 -0.05
v  4.61806 4.625 0.05
v  4.61806 4.625 -0.05
v  -14.3819 4.625 0.05
v  -14.3819 4.625 -0.05

# 0 UV coordinates

# 120 vertex normals
vn 0 1 0
vn 0.0426913 0.999088 0
vn 0.134567 0.990904 0
vn 0.226557 0.973998 0
vn 0.306992 0.951712 0
vn 0.378979 0.925405 0
vn 0.457224 0.889352 0
vn 0.536201 0.84409 0
vn 0.611846 0.790977 0
vn 0.684987 0.728555 0
vn 0.734338 0.678784 0
vn 0.767542 0.640998 0
vn 0.812108 0.583507 0
vn 0.862165 0.506627 0
vn 0.906327 0.422578 0
vn 0.938373 0.345624 0
vn 0.961548 0.274639 0
vn 0.980795 0.195042 0
vn 0.993192 0.116486 0
vn 0.999118 0.0419983 0
vn 0.998869 -0.0475372 0
vn 0.991288 -0.13171 0
vn 0.978673 -0.205426 0
vn 0.959446 -0.281893 0
vn 0.930982 -0.365066 0
vn 0.89375 -0.448565 0
vn 0.852474 -0.52277 0
vn 0.809309 -0.587383 0
vn 0.756187 -0.654356 0
vn 0.691158 -0.722704 0
vn 0.620465 -0.784234 0
vn 0.546532 -0.837438 0
vn 0.482786 -0.875738 0
vn 0.432797 -0.901491 0
vn 0.36634 -0.930481 0
vn 0.28134 -0.959608 0
vn 0.19152 -0.981489 0
vn 0.105681 -0.9944 0
vn 0.0324158 -0.999474 0
vn 0 -1 0
vn 1 0 0
vn -1 0 0
vn -0.045322 0.998972 0
vn -0.135545 0.990771 0
vn -0.222412 0.974953 0
vn -0.308003 0.951386 0
vn -0.393597 0.919283 0
vn -0.473146 0.880984 0
vn -0.551293 0.834312 0
vn -0.625068 0.78057 0
vn -0.692179 0.721726 0
vn -0.755859 0.654735 0
vn -0.813847 0.58108 0
vn -0.853282 0.52145 0
vn -0.878873 0.477057 0
vn -0.911323 0.411691 0
vn -0.945031 0.326982 0
vn -0.9703 0.241906 0
vn -0.98798 0.154582 0
vn -0.996461 0.084058 0
vn -0.999613 0.0278006 0
vn -0.999118 -0.0419798 0
vn -0.991342 -0.131304 0
vn -0.975617 -0.219479 0
vn -0.955276 -0.295716 0
vn -0.931623 -0.363427 0
vn -0.897795 -0.440413 0
vn -0.852478 -0.522762 0
vn -0.800978 -0.598693 0
vn -0.742631 -0.6697 0
vn -0.691041 -0.722816 0
vn -0.647034 -0.762461 0
vn -0.585829 -0.810435 0
vn -0.509356 -0.860556 0
vn -0.428584 -0.903502 0
vn -0.345599 -0.938382 0
vn -0.262548 -0.964919 0
vn -0.176621 -0.984279 0
vn -0.0991278 -0.995075 0
vn -0.0326091 -0.999468 0
vn 0 0 1
vn -2.52783e-17 -1.96014e-17 1
vn 1.0369e-17 7.45022e-18 1
vn 9.77504e-18 8.16344e-18 1
vn 9.37566e-18 8.66637e-18 1
vn 8.82538e-18 9.3867e-18 1
vn 8.08287e-18 1.04493e-17 1
vn 7.36262e-18 1.15903e-17 1
vn 6.62488e-18 1.28861e-17 1
vn 5.88235e-18 1.43638e-17 1
vn 5.1431e-18 1.59442e-17 1
vn 4.20731e-18 1.80877e-17 1
vn 2.90193e-18 2.13687e-17 1
vn 1.12418e-18 2.63088e-17 1
vn 0 -2.92164e-17 1
vn 1.26625e-17 -2.65789e-18 1
vn 7.63543e-19 6.47889e-18 1
vn -3.50717e-18 0 1
vn 2.53987e-17 -3.37466e-18 1
vn 2.13963e-17 -1.01827e-18 1
vn 1.85081e-17 7.77994e-19 1
vn 1.67159e-17 1.96051e-18 1
vn 1.52089e-17 3.02445e-18 1
vn 1.39937e-17 3.99689e-18 1
vn 1.30453e-17 4.80487e-18 1
vn 1.21132e-17 5.64783e-18 1
vn 3.56272e-18 -7.42094e-18 1
vn 5.62408e-18 -5.52004e-18 1
vn 2.4404e-18 -8.32384e-18 1
vn 3.93811e-18 -7.14344e-18 1
vn 4.43441e-18 -6.79474e-18 1
vn 5.05476e-18 -6.38894e-18 1
vn 5.71949e-18 -5.98054e-18 1
vn 6.43387e-18 -5.56746e-18 1
vn 7.13816e-18 -5.18075e-18 1
vn 7.84938e-18 -4.81355e-18 1
vn 8.73058e-18 -4.3818e-18 1
vn 9.85299e-18 -3.86366e-18 1
vn 1.11744e-17 -3.28312e-18 1
vn 0 0 -1

# Mesh '<STL_BINARY>' with 348 faces
g <STL_BINARY>
usemtl DefaultMaterial
f  1//1 2//1 3//1
f  1//1 4//1 2//1
f  5//2 3//2 6//2
f  5//2 1//2 3//2
f  7//3 6//3 8//3
f  7//3 5//3 6//3
f  9//4 8//4 10//4
f  9//4 7//4 8//4
f  11//5 10//5 12//5
f  11//5 9//5 10//5
f  13//6 12//6 14//6
f  13//6 11//6 12//6
f  15//7 14//7 16//7
f  15//7 13//7 14//7
f  17//8 16//8 18//8
f  17//8 15//8 16//8
f  19//9 18//9 20//9
f  19//9 17//9 18//9
f  21//10 20//10 22//10
f  21//10 19//10 20//10
f  23//11 22//11 24//11
f  23//11 21//11 22//11
f  25//12 24//12 26//12
f  25//12 23//12 24//12
f  27//13 26//13 28//13
f  27//13 25//13 26//13
f  29//14 28//14 30//14
f  29//14 27//14 28//14
f  31//15 30//15 32//15
f  31//15 29//15 30//15
f  33//16 32//16 34//16
f  33//16 31//16 32//16
f  35//17 34//17 36//17
f  35//17 33//17 34//17
f  37//18 36//18 38//18
f  37//18 35//18 36//18
f  39//19 38//19 40//19
f  39//19 37//19 38//19
f  41//20 40//20 42//20
f  41//20 39//20 40//20
f  43//21 42//21 44//21
f  43//21 41//21 42//21
f  45//22 44//22 46//22
f  45//22 43//22 44//22
f  47//23 46//23 48//23
f  47//23 45//23 46//23
f  49//24 48//24 50//24
f  49//24 47//24 48//24
f  51//25 50//25 52//25
f  51//25 49//25 50//25
f  53//26 52//26 54//26
f  53//26 51//26 52//26
f  55//27 54//27 56//27
f  55//27 53//27 54//27
f  57//28 56//28 58//28
f  57//28 55//28 56//28
f  59//29 58//29 60//29
f  59//29 57//29 58//29
f  61//30 60//30 62//30
f  61//30 59//30 60//30
f  63//31 62//31 64//31
f  63//31 61//31 62//31
f  65//32 64//32 66//32
f  65//32 63//32 64//32
f  67//33 66//33 68//33
f  67//33 65//33 66//33
f  69//34 68//34 70//34
f  69//34 67//34 68//34
f  71//35 70//35 72//35
f  71//35 69//35 70//35
f  73//36 72//36 74//36
f  73//36 71//36 72//36
f  75//37 74//37 76//37
f  75//37 73//37 74//37
f  77//38 76//38 78//38
f  77//38 75//38 76//38
f  79//39 78//39 80//39
f  79//39 77//39 78//39
f  81//40 80//40 82//40
f  81//40 79//40 80//40
f  83//41 82//41 84//41
f  83//41 81//41 82//41
f  85//40 84//40 86//40
f  85//40 83//40 84//40
f  4//42 86//42 2//42
f  4//42 85//42 86//42
f  87//1 88//1 89//1
f  87//1 90//1 88//1
f  91//43 89//43 92//43
f  91//43 87//43 89//43
f  93//44 92//44 94//44
f  93//44 91//44 92//44
f  95//45 94//45 96//45
f  95//45 93//45 94//45
f  97//46 96//46 98//46
f  97//46 95//46 96//46
f  99//47 98//47 100//47
f  99//47 97//47 98//47
f  101//48 100//48 102//48
f  101//48 99//48 100//48
f  103//49 102//49 104//49
f  103//49 101//49 102//49
f  105//50 104//50 106//50
f  105//50 103//50 104//50
f  107//51 106//51 108//51
f  107//51 105//51 106//51
f  109//52 108//52 110//52
f  109//52 107//52 108//52
f  111//53 110//53 112//53
f  111//53 109//53 110//53
f  113//54 112//54 114//54
f  113//54 111//54 112//54
f  115//55 114//55 116//55
f  115//55 113//55 114//55
f  117//56 116//56 118//56
f  117//56 115//56 116//56
f  119//57 118//57 120//57
f  119//57 117//57 118//57
f  121//58 120//58 122//58
f  121//58 119//58 120//58
f  123//59 122//59 124//59
f  123//59 121//59 122//59
f  125//60 124//60 126//60
f  125//60 123//60 124//60
f  127//61 126//61 128//61
f  127//61 125//61 126//61
f  129//62 128//62 130//62
f  129//62 127//62 128//62
f  131//63 130//63 132//63
f  131//63 129//63 130//63
f  133//64 132//64 134//64
f  133//64 131//64 132//64
f  135//65 134//65 136//65
f  135//65 133//65 134//65
f  137//66 136//66 138//66
f  137//66 135//66 136//66
f  139//67 138//67 140//67
f  139//67 137//67 138//67
f  141//68 140//68 142//68
f  141//68 139//68 140//68
f  143//69 142//69 144//69
f  143//69 141//69 142//69
f  145//70 144//70 146//70
f  145//70 143//70 144//70
f  147//71 146//71 148//71
f  147//71 145//71 146//71
f  149//72 148//72 150//72
f  149//72 147//72 148//72
f  151//73 150//73 152//73
f  151//73 149//73 150//73
f  153//74 152//74 154//74
f  153//74 151//74 152//74
f  155//75 154//75 156//75
f  155//75 153//75 154//75
f  157//76 156//76 158//76
f  157//76 155//76 156//76
f  159//77 158//77 160//77
f  159//77 157//77 158//77
f  161//78 160//78 162//78
f  161//78 159//78 160//78
f  163//79 162//79 164//79
f  163//79 161//79 162//79
f  165//80 164//80 166//80
f  165//80 163//80 164//80
f  167//40 166//40 168//40
f  167//40 165//40 166//40
f  90//41 168//41 88//41
f  90//41 167//41 168//41
f  169//40 170//40 171//40
f  169//40 172//40 170//40
f  172//41 173//41 170//41
f  172//41 174//41 173//41
f  174//1 175//1 173//1
f  174//1 176//1 175//1
f  176//42 171//42 175//42
f  176//42 169//42 171//42
f  93//81 165//81 91//81
f  93//81 163//81 165//81
f  163//81 93//81 127//81
f  127//81 93//81 95//81
f  91//81 165//81 87//81
f  87//81 165//81 167//82
f  87//81 167//82 90//82
f  127//81 95//81 125//81
f  125//81 95//81 97//81
f  163//81 127//81 129//81
f  129//81 161//81 163//81
f  129//81 131//81 161//81
f  131//81 159//81 161//81
f  131//81 133//81 159//81
f  159//81 137//81 157//81
f  159//81 135//81 137//81
f  159//81 133//81 135//81
f  157//81 137//81 139//81
f  157//81 139//81 155//81
f  139//81 153//81 155//81
f  139//81 141//81 153//81
f  141//81 151//81 153//81
f  141//81 143//81 151//81
f  143//81 149//81 151//81
f  143//81 145//81 149//81
f  149//81 145//81 147//81
f  125//81 97//81 123//81
f  123//81 97//81 99//81
f  123//81 101//81 121//81
f  123//81 99//81 101//81
f  101//81 113//81 121//81
f  101//81 111//81 113//81
f  111//81 101//81 103//81
f  113//81 119//81 121//81
f  113//81 115//81 119//81
f  119//81 115//81 117//81
f  103//81 107//81 109//81
f  103//81 105//81 107//81
f  111//81 103//81 109//81
f  173//83 25//83 27//83
f  173//83 23//84 25//83
f  173//83 21//85 23//84
f  173//83 19//86 21//85
f  173//83 17//87 19//86
f  173//83 15//88 17//87
f  173//83 13//89 15//88
f  173//83 11//90 13//89
f  173//83 9//91 11//90
f  173//83 7//92 9//91
f  173//83 5//93 7//92
f  173//83 1//94 5//93
f  170//95 173//83 45//96
f  4//97 173//83 175//98
f  4//97 1//94 173//83
f  173//83 43//99 45//96
f  173//83 41//100 43//99
f  173//83 39//101 41//100
f  173//83 37//102 39//101
f  173//83 35//103 37//102
f  173//83 33//104 35//103
f  173//83 31//105 33//104
f  173//83 29//106 31//105
f  173//83 27//83 29//106
f  170//95 85//95 171//95
f  170//95 83//95 85//95
f  170//95 67//107 69//107
f  170//95 73//108 83//95
f  170//95 71//109 73//108
f  170//95 69//107 71//109
f  170//95 65//110 67//107
f  170//95 63//111 65//110
f  170//95 61//112 63//111
f  170//95 59//113 61//112
f  170//95 57//114 59//113
f  170//95 55//115 57//114
f  170//95 53//116 55//115
f  170//95 51//117 53//116
f  170//95 49//118 51//117
f  170//95 47//119 49//118
f  170//95 45//96 47//119
f  85//95 175//98 171//95
f  85//95 4//97 175//98
f  83//95 73//108 75//81
f  83//95 79//81 81//81
f  83//95 77//81 79//81
f  83//95 75//81 77//81
f  176//120 172//120 169//120
f  176//120 174//120 172//120
f  168//81 3//81 2//81
f  168//81 166//81 3//81
f  2//81 88//81 168//81
f  164//81 6//81 3//81
f  3//81 166//81 164//81
f  164//81 162//81 6//81
f  6//81 160//81 8//81
f  6//81 162//81 160//81
f  8//81 160//81 158//81
f  158//81 10//81 8//81
f  158//81 156//81 10//81
f  156//81 12//81 10//81
f  156//81 154//81 12//81
f  154//81 14//81 12//81
f  154//81 152//81 14//81
f  152//81 16//81 14//81
f  152//81 150//81 16//81
f  16//81 148//81 18//81
f  16//81 150//81 148//81
f  18//81 148//81 146//81
f  18//81 146//81 20//81
f  20//81 146//81 144//81
f  20//81 144//81 22//81
f  22//81 144//81 142//81
f  22//81 142//81 24//81
f  24//81 142//81 26//81
f  26//81 142//81 140//81
f  26//81 140//81 28//81
f  28//81 140//81 138//81
f  28//81 138//81 30//81
f  138//81 32//81 30//81
f  138//81 136//81 32//81
f  136//81 34//81 32//81
f  136//81 134//81 34//81
f  134//81 36//81 34//81
f  134//81 132//81 36//81
f  132//81 38//81 36//81
f  132//81 130//81 38//81
f  38//81 130//81 40//81
f  40//81 130//81 128//81
f  40//81 128//81 42//81
f  42//81 128//81 126//81
f  42//81 126//81 44//81
f  124//81 44//81 126//81
f  124//81 46//81 44//81
f  46//81 124//81 122//81
f  122//81 48//81 46//81
f  122//81 120//81 48//81
f  120//81 50//81 48//81
f  120//81 118//81 50//81
f  50//81 118//81 52//81
f  116//81 52//81 118//81
f  116//81 54//81 52//81
f  114//81 54//81 116//81
f  114//81 56//81 54//81
f  112//81 56//81 114//81
f  112//81 58//81 56//81
f  110//81 58//81 112//81
f  110//81 60//81 58//81
f  110//81 62//81 60//81
f  110//81 108//81 62//81
f  108//81 64//81 62//81
f  108//81 106//81 64//81
f  106//81 66//81 64//81
f  106//81 104//81 66//81
f  66//81 104//81 68//81
f  104//81 70//81 68//81
f  104//81 102//81 70//81
f  102//81 72//81 70//81
f  102//81 100//81 72//81
f  100//81 74//81 72//81
f  100//81 98//81 74//81
f  98//81 76//81 74//81
f  98//81 96//81 76//81
f  96//81 78//81 76//81
f  96//81 94//81 78//81
f  92//81 78//81 94//81
f  92//81 80//81 78//81
f  80//81 92//81 89//81
f  89//81 82//81 80//81
f  89//81 88//81 82//81
f  86//81 82//81 88//81
f  82//81 86//81 84//81
f  86//81 88//81 2//81

