# File produced by Open Asset Import Library (http://www.assimp.sf.net)
# (assimp v3.1.187496374)

mtllib R.obj.mtl

# 270 vertex positions
v  0.351 3.226 0.05
v  -2.718 3.226 1.5
v  0.351 3.226 1.5
v  -2.718 3.226 0.05
v  0.75456 3.20764 0.05
v  0.75456 3.20764 1.5
v  1.04682 3.16651 0.05
v  1.04682 3.16651 1.5
v  1.28025 3.11125 0.05
v  1.28025 3.11125 1.5
v  1.46376 3.04956 0.05
v  1.46376 3.04956 1.5
v  1.63198 2.97465 0.05
v  1.63198 2.97465 1.5
v  1.76049 2.90213 0.05
v  1.76049 2.90213 1.5
v  1.85564 2.8375 0.05
v  1.85564 2.8375 1.5
v  1.944 2.767 0.05
v  1.944 2.767 1.5
v  2.04489 2.6716 0.05
v  2.04489 2.6716 1.5
v  2.13516 2.569 0.05
v  2.13516 2.569 1.5
v  2.21481 2.4592 0.05
v  2.21481 2.4592 1.5
v  2.28384 2.3422 0.05
v  2.28384 2.3422 1.5
v  2.34225 2.218 0.05
v  2.34225 2.218 1.5
v  2.39004 2.0866 0.05
v  2.39004 2.0866 1.5
v  2.43337 1.91942 0.05
v  2.43337 1.91942 1.5
v  2.46141 1.74186 0.05
v  2.46141 1.74186 1.5
v  2.4716 1.61774 0.05
v  2.4716 1.61774 1.5
v  2.475 1.489 0.05
v  2.475 1.489 1.5
v  2.46442 1.24431 0.05
v  2.46442 1.24431 1.5
v  2.4385 1.05423 0.05
v  2.4385 1.05423 1.5
v  2.40502 0.909688 0.05
v  2.40502 0.909688 1.5
v  2.37515 0.816007 0.05
v  2.37515 0.816007 1.5
v  2.34 0.7285 0.05
v  2.34 0.7285 1.5
v  2.25495 0.55813 0.05
v  2.25495 0.55813 1.5
v  2.17469 0.427511 0.05
v  2.17469 0.427511 1.5
v  2.10202 0.329343 0.05
v  2.10202 0.329343 1.5
v  2.025 0.2425 0.05
v  2.025 0.2425 1.5
v  1.91741 0.141115 0.05
v  1.91741 0.141115 1.5
v  1.82481 0.0683176 0.05
v  1.82481 0.0683176 1.5
v  1.74694 0.0176494 0.05
v  1.74694 0.0176494 1.5
v  1.71168 -0.0020696 0.05
v  1.71168 -0.0020696 1.5
v  1.6695 -0.023 0.05
v  1.6695 -0.023 1.5
v  1.51762 -0.0905 0.05
v  1.51762 -0.0905 1.5
v  1.413 -0.131 0.05
v  1.413 -0.131 1.5
v  1.413 -0.149 0.05
v  1.413 -0.149 1.5
v  1.4954 -0.163314 0.05
v  1.4954 -0.163314 1.5
v  1.58761 -0.188046 0.05
v  1.58761 -0.188046 1.5
v  1.65133 -0.209934 0.05
v  1.65133 -0.209934 1.5
v  1.7235 -0.239 0.05
v  1.7235 -0.239 1.5
v  1.7892 -0.27122 0.05
v  1.7892 -0.27122 1.5
v  1.8531 -0.31028 0.05
v  1.8531 -0.31028 1.5
v  1.92131 -0.361146 0.05
v  1.92131 -0.361146 1.5
v  1.9755 -0.40892 0.05
v  1.9755 -0.40892 1.5
v  2.034 -0.4685 0.05
v  2.034 -0.4685 1.5
v  2.08962 -0.53528 0.05
v  2.08962 -0.53528 1.5
v  2.14623 -0.61747 0.05
v  2.14623 -0.61747 1.5
v  2.20252 -0.717564 0.05
v  2.20252 -0.717564 1.5
v  2.23688 -0.790342 0.05
v  2.23688 -0.790342 1.5
v  2.2725 -0.878 0.05
v  2.2725 -0.878 1.5
v  2.30652 -0.98384 0.05
v  2.30652 -0.98384 1.5
v  2.33521 -1.11191 0.05
v  2.33521 -1.11191 1.5
v  2.35849 -1.29254 0.05
v  2.35849 -1.29254 1.5
v  2.367 -1.508 0.05
v  2.367 -1.508 1.5
v  2.39193 -2.09018 0.05
v  2.39193 -2.09018 1.5
v  2.41638 -2.31006 0.05
v  2.41638 -2.31006 1.5
v  2.4525 -2.5385 0.05
v  2.4525 -2.5385 1.5
v  2.50335 -2.76157 0.05
v  2.50335 -2.76157 1.5
v  2.55116 -2.90874 0.05
v  2.55116 -2.90874 1.5
v  2.59485 -3.01118 0.05
v  2.59485 -3.01118 1.5
v  2.63704 -3.08967 0.05
v  2.63704 -3.08967 1.5
v  2.67616 -3.14866 0.05
v  2.67616 -3.14866 1.5
v  2.718 -3.2 0.05
v  2.718 -3.2 1.5
v  1.512 -3.2 0.05
v  1.512 -3.2 1.5
v  1.46574 -3.1154 0.05
v  1.46574 -3.1154 1.5
v  1.42776 -3.0272 0.05
v  1.42776 -3.0272 1.5
v  1.39806 -2.9354 0.05
v  1.39806 -2.9354 1.5
v  1.37664 -2.84 0.05
v  1.37664 -2.84 1.5
v  1.3635 -2.741 0.05
v  1.3635 -2.741 1.5
v  1.341 -2.255 0.05
v  1.341 -2.255 1.5
v  1.3275 -1.84438 0.05
v  1.3275 -1.84438 1.5
v  1.287 -1.4945 0.05
v  1.287 -1.4945 1.5
v  1.25284 -1.33566 0.05
v  1.25284 -1.33566 1.5
v  1.21442 -1.21266 0.05
v  1.21442 -1.21266 1.5
v  1.17194 -1.10992 0.05
v  1.17194 -1.10992 1.5
v  1.13278 -1.03394 0.05
v  1.13278 -1.03394 1.5
v  1.089 -0.9635 0.05
v  1.089 -0.9635 1.5
v  1.04027 -0.8987 0.05
v  1.04027 -0.8987 1.5
v  0.986242 -0.83966 0.05
v  0.986242 -0.83966 1.5
v  0.926914 -0.78638 0.05
v  0.926914 -0.78638 1.5
v  0.862286 -0.73886 0.05
v  0.862286 -0.73886 1.5
v  0.79236 -0.6971 0.05
v  0.79236 -0.6971 1.5
v  0.745965 -0.673925 0.05
v  0.745965 -0.673925 1.5
v  0.6975 -0.653 0.05
v  0.6975 -0.653 1.5
v  0.60388 -0.620568 0.05
v  0.60388 -0.620568 1.5
v  0.489256 -0.592056 0.05
v  0.489256 -0.592056 1.5
v  0.336976 -0.568296 0.05
v  0.336976 -0.568296 1.5
v  0.21222 -0.55796 0.05
v  0.21222 -0.55796 1.5
v  0.063 -0.554 0.05
v  0.063 -0.554 1.5
v  -1.593 -0.554 0.05
v  -1.593 -0.554 1.5
v  -1.593 -3.2 0.05
v  -1.593 -3.2 1.5
v  -2.718 -3.2 0.05
v  -2.718 -3.2 1.5
v  0.252 0.301 0.05
v  -1.593 0.301 1.5
v  0.252 0.301 1.5
v  -1.593 0.301 0.05
v  0.437944 0.309311 0.05
v  0.437944 0.309311 1.5
v  0.589028 0.330651 0.05
v  0.589028 0.330651 1.5
v  0.710266 0.360098 0.05
v  0.710266 0.360098 1.5
v  0.80604 0.39334 0.05
v  0.80604 0.39334 1.5
v  0.894298 0.43397 0.05
v  0.894298 0.43397 1.5
v  0.962104 0.473471 0.05
v  0.962104 0.473471 1.5
v  1.01259 0.508765 0.05
v  1.01259 0.508765 1.5
v  1.071 0.5575 0.05
v  1.071 0.5575 1.5
v  1.12401 0.611365 0.05
v  1.12401 0.611365 1.5
v  1.17144 0.67036 0.05
v  1.17144 0.67036 1.5
v  1.21329 0.734485 0.05
v  1.21329 0.734485 1.5
v  1.24956 0.80374 0.05
v  1.24956 0.80374 1.5
v  1.28025 0.878125 0.05
v  1.28025 0.878125 1.5
v  1.30971 0.974159 0.05
v  1.30971 0.974159 1.5
v  1.33114 1.07758 0.05
v  1.33114 1.07758 1.5
v  1.34453 1.18839 0.05
v  1.34453 1.18839 1.5
v  1.35 1.327 0.05
v  1.35 1.327 1.5
v  1.34294 1.48954 0.05
v  1.34294 1.48954 1.5
v  1.32566 1.61482 0.05
v  1.32566 1.61482 1.5
v  1.30334 1.70932 0.05
v  1.30334 1.70932 1.5
v  1.28344 1.77012 0.05
v  1.28344 1.77012 1.5
v  1.26 1.8265 0.05
v  1.26 1.8265 1.5
v  1.2213 1.90048 0.05
v  1.2213 1.90048 1.5
v  1.18185 1.96121 0.05
v  1.18185 1.96121 1.5
v  1.13803 2.01641 0.05
v  1.13803 2.01641 1.5
v  1.09541 2.06082 0.05
v  1.09541 2.06082 1.5
v  1.05528 2.09608 0.05
v  1.05528 2.09608 1.5
v  1.0125 2.128 0.05
v  1.0125 2.128 1.5
v  0.9477 2.16832 0.05
v  0.9477 2.16832 1.5
v  0.8793 2.20288 0.05
v  0.8793 2.20288 1.5
v  0.799902 2.23424 0.05
v  0.799902 2.23424 1.5
v  0.7317 2.25472 0.05
v  0.7317 2.25472 1.5
v  0.6525 2.272 0.05
v  0.6525 2.272 1.5
v  0.446625 2.299 0.05
v  0.446625 2.299 1.5
v  0.234 2.308 0.05
v  0.234 2.308 1.5
v  -1.593 2.308 0.05
v  -1.593 2.308 1.5
v  -4.625 -14.3819 -0.05
v  4.625 -14.3819 0.05
v  -4.625 -14.3819 0.05
v  4.625 -14.3819 -0.05
v  4.625 4.61806 0.05
v  4.625 4.61806 -0.05
v  -4.625 4.61806 0.05
v  -4.625 4.61806 -0.05

# 0 UV coordinates

# 154 vertex normals
vn 0 1 0
vn 0.0454481 0.998967 0
vn 0.139345 0.990244 0
vn 0.23038 0.973101 0
vn 0.318637 0.947877 0
vn 0.406791 0.913521 0
vn 0.491494 0.870881 0
vn 0.561844 0.827243 0
vn 0.6237 0.781664 0
vn 0.687061 0.7266 0
vn 0.750779 0.660554 0
vn 0.809453 0.587185 0
vn 0.861269 0.508149 0
vn 0.904923 0.425576 0
vn 0.939775 0.341795 0
vn 0.968017 0.250884 0
vn 0.987761 0.155975 0
vn 0.996644 0.0818589 0
vn 0.999652 0.026389 0
vn 0.999066 -0.043214 0
vn 0.99083 -0.135113 0
vn 0.974207 -0.225657 0
vn 0.952766 -0.303706 0
vn 0.927923 -0.372772 0
vn 0.894711 -0.446646 0
vn 0.852004 -0.523535 0
vn 0.803758 -0.594956 0
vn 0.748143 -0.663538 0
vn 0.685792 -0.727798 0
vn 0.618058 -0.786132 0
vn 0.54537 -0.838195 0
vn 0.488176 -0.872745 0
vn 0.444459 -0.895799 0
vn 0.406138 -0.913812 0
vn 0.360994 -0.932568 0
vn 1 0 0
vn 0.171138 0.985247 0
vn 0.259071 0.965858 0
vn 0.324871 0.945758 0
vn 0.373583 0.927597 0
vn 0.440313 0.897844 0
vn 0.521547 0.853222 0
vn 0.597801 0.801645 0
vn 0.66131 0.750113 0
vn 0.713544 0.70061 0
vn 0.768391 0.639981 0
vn 0.823561 0.567227 0
vn 0.871626 0.490172 0
vn 0.904291 0.426917 0
vn 0.92642 0.376492 0
vn 0.952029 0.306009 0
vn 0.975813 0.218607 0
vn 0.991794 0.127848 0
vn 0.999222 0.039443 0
vn 0.999084 0.0427857 0
vn 0.993873 0.11053 0
vn 0.987733 0.156154 0
vn 0.974991 0.222244 0
vn 0.951075 0.30896 0
vn 0.919839 0.392296 0
vn 0.880771 0.473543 0
vn 0.833409 0.552656 0
vn 0.775205 0.631709 0
vn 0 -1 0
vn -0.877396 -0.479767 0
vn -0.918465 -0.395502 0
vn -0.951445 -0.30782 0
vn -0.975708 -0.219074 0
vn -0.991306 -0.131573 0
vn -0.99893 -0.0462468 0
vn -0.99946 -0.032859 0
vn -0.993367 -0.114988 0
vn -0.977642 -0.210277 0
vn -0.954535 -0.2981 0
vn -0.924127 -0.382085 0
vn -0.888833 -0.458231 0
vn -0.849361 -0.527812 0
vn -0.799232 -0.601023 0
vn -0.737722 -0.675105 0
vn -0.668166 -0.744012 0
vn -0.59239 -0.805651 0
vn -0.512727 -0.858552 0
vn -0.446866 -0.894601 0
vn -0.396387 -0.918083 0
vn -0.327341 -0.944906 0
vn -0.241388 -0.970429 0
vn -0.154163 -0.988045 0
vn -0.0825635 -0.996586 0
vn -0.0265287 -0.999648 0
vn -1 0 0
vn -0.0446496 0.999003 0
vn -0.139862 0.990171 0
vn -0.236019 0.971748 0
vn -0.327901 0.944712 0
vn -0.41817 0.908369 0
vn -0.503372 0.86407 0
vn -0.57296 0.819583 0
vn -0.64065 0.767833 0
vn -0.712741 0.701427 0
vn -0.779359 0.626578 0
vn -0.837435 0.546537 0
vn -0.885865 0.463942 0
vn -0.924411 0.381397 0
vn -0.95602 0.2933 0
vn -0.979204 0.202876 0
vn -0.992776 0.119985 0
vn -0.999223 0.0394203 0
vn -0.999059 -0.04337 0
vn -0.990621 -0.136637 0
vn -0.973222 -0.229866 0
vn -0.950344 -0.311201 0
vn -0.923412 -0.383809 0
vn -0.886085 -0.463524 0
vn -0.838633 -0.544697 0
vn -0.783173 -0.621803 0
vn -0.721462 -0.692454 0
vn -0.660123 -0.751158 0
vn -0.597996 -0.801499 0
vn -0.528302 -0.849057 0
vn -0.450968 -0.89254 0
vn -0.367388 -0.930068 0
vn -0.287557 -0.957764 0
vn -0.213167 -0.977016 0
vn -0.130034 -0.99151 0
vn -0.0422902 -0.999105 0
vn 0 0 1
vn -2.25655e-17 -2.02381e-19 1
vn 0 -2.07441e-17 1
vn 0 -3.72327e-18 1
vn -2.18319e-17 0 1
vn 4.72941e-18 6.47889e-18 1
vn 0 2.99078e-17 1
vn 8.97546e-18 9.49197e-18 1
vn 2.99661e-18 2.12953e-17 1
vn 4.28797e-18 1.81119e-17 1
vn 5.31908e-18 1.58231e-17 1
vn 6.22921e-18 1.39888e-17 1
vn 7.05056e-18 1.24929e-17 1
vn 7.72276e-18 1.13708e-17 1
vn 8.32523e-18 1.04337e-17 1
vn 1.04705e-17 7.59542e-18 1
vn 1.13014e-17 6.66782e-18 1
vn 1.22039e-17 5.73938e-18 1
vn 1.31933e-17 4.79838e-18 1
vn 1.44008e-17 3.7323e-18 1
vn 1.59042e-17 2.51139e-18 1
vn 1.73485e-17 1.42491e-18 1
vn 1.86479e-17 4.92272e-19 1
vn 2.06653e-17 -8.93863e-19 1
vn 2.44826e-17 -3.33854e-18 1
vn 2.06456e-17 -9.84425e-19 1
vn 1.37476e-17 1.77215e-18 1
vn 1.23158e-17 2.32119e-18 1
vn 0 0 -1

# Mesh '<STL_BINARY>' with 536 faces
g <STL_BINARY>
usemtl DefaultMaterial
f  1//1 2//1 3//1
f  1//1 4//1 2//1
f  5//2 3//2 6//2
f  5//2 1//2 3//2
f  7//3 6//3 8//3
f  7//3 5//3 6//3
f  9//4 8//4 10//4
f  9//4 7//4 8//4
f  11//5 10//5 12//5
f  11//5 9//5 10//5
f  13//6 12//6 14//6
f  13//6 11//6 12//6
f  15//7 14//7 16//7
f  15//7 13//7 14//7
f  17//8 16//8 18//8
f  17//8 15//8 16//8
f  19//9 18//9 20//9
f  19//9 17//9 18//9
f  21//10 20//10 22//10
f  21//10 19//10 20//10
f  23//11 22//11 24//11
f  23//11 21//11 22//11
f  25//12 24//12 26//12
f  25//12 23//12 24//12
f  27//13 26//13 28//13
f  27//13 25//13 26//13
f  29//14 28//14 30//14
f  29//14 27//14 28//14
f  31//15 30//15 32//15
f  31//15 29//15 30//15
f  33//16 32//16 34//16
f  33//16 31//16 32//16
f  35//17 34//17 36//17
f  35//17 33//17 34//17
f  37//18 36//18 38//18
f  37//18 35//18 36//18
f  39//19 38//19 40//19
f  39//19 37//19 38//19
f  41//20 40//20 42//20
f  41//20 39//20 40//20
f  43//21 42//21 44//21
f  43//21 41//21 42//21
f  45//22 44//22 46//22
f  45//22 43//22 44//22
f  47//23 46//23 48//23
f  47//23 45//23 46//23
f  49//24 48//24 50//24
f  49//24 47//24 48//24
f  51//25 50//25 52//25
f  51//25 49//25 50//25
f  53//26 52//26 54//26
f  53//26 51//26 52//26
f  55//27 54//27 56//27
f  55//27 53//27 54//27
f  57//28 56//28 58//28
f  57//28 55//28 56//28
f  59//29 58//29 60//29
f  59//29 57//29 58//29
f  61//30 60//30 62//30
f  61//30 59//30 60//30
f  63//31 62//31 64//31
f  63//31 61//31 62//31
f  65//32 64//32 66//32
f  65//32 63//32 64//32
f  67//33 66//33 68//33
f  67//33 65//33 66//33
f  69//34 68//34 70//34
f  69//34 67//34 68//34
f  71//35 70//35 72//35
f  71//35 69//35 70//35
f  73//36 72//36 74//36
f  73//36 71//36 72//36
f  75//37 74//37 76//37
f  75//37 73//37 74//37
f  77//38 76//38 78//38
f  77//38 75//38 76//38
f  79//39 78//39 80//39
f  79//39 77//39 78//39
f  81//40 80//40 82//40
f  81//40 79//40 80//40
f  83//41 82//41 84//41
f  83//41 81//41 82//41
f  85//42 84//42 86//42
f  85//42 83//42 84//42
f  87//43 86//43 88//43
f  87//43 85//43 86//43
f  89//44 88//44 90//44
f  89//44 87//44 88//44
f  91//45 90//45 92//45
f  91//45 89//45 90//45
f  93//46 92//46 94//46
f  93//46 91//46 92//46
f  95//47 94//47 96//47
f  95//47 93//47 94//47
f  97//48 96//48 98//48
f  97//48 95//48 96//48
f  99//49 98//49 100//49
f  99//49 97//49 98//49
f  101//50 100//50 102//50
f  101//50 99//50 100//50
f  103//51 102//51 104//51
f  103//51 101//51 102//51
f  105//52 104//52 106//52
f  105//52 103//52 104//52
f  107//53 106//53 108//53
f  107//53 105//53 106//53
f  109//54 108//54 110//54
f  109//54 107//54 108//54
f  111//55 110//55 112//55
f  111//55 109//55 110//55
f  113//56 112//56 114//56
f  113//56 111//56 112//56
f  115//57 114//57 116//57
f  115//57 113//57 114//57
f  117//58 116//58 118//58
f  117//58 115//58 116//58
f  119//59 118//59 120//59
f  119//59 117//59 118//59
f  121//60 120//60 122//60
f  121//60 119//60 120//60
f  123//61 122//61 124//61
f  123//61 121//61 122//61
f  125//62 124//62 126//62
f  125//62 123//62 124//62
f  127//63 126//63 128//63
f  127//63 125//63 126//63
f  129//64 128//64 130//64
f  129//64 127//64 128//64
f  131//65 130//65 132//65
f  131//65 129//65 130//65
f  133//66 132//66 134//66
f  133//66 131//66 132//66
f  135//67 134//67 136//67
f  135//67 133//67 134//67
f  137//68 136//68 138//68
f  137//68 135//68 136//68
f  139//69 138//69 140//69
f  139//69 137//69 138//69
f  141//70 140//70 142//70
f  141//70 139//70 140//70
f  143//71 142//71 144//71
f  143//71 141//71 142//71
f  145//72 144//72 146//72
f  145//72 143//72 144//72
f  147//73 146//73 148//73
f  147//73 145//73 146//73
f  149//74 148//74 150//74
f  149//74 147//74 148//74
f  151//75 150//75 152//75
f  151//75 149//75 150//75
f  153//76 152//76 154//76
f  153//76 151//76 152//76
f  155//77 154//77 156//77
f  155//77 153//77 154//77
f  157//78 156//78 158//78
f  157//78 155//78 156//78
f  159//79 158//79 160//79
f  159//79 157//79 158//79
f  161//80 160//80 162//80
f  161//80 159//80 160//80
f  163//81 162//81 164//81
f  163//81 161//81 162//81
f  165//82 164//82 166//82
f  165//82 163//82 164//82
f  167//83 166//83 168//83
f  167//83 165//83 166//83
f  169//84 168//84 170//84
f  169//84 167//84 168//84
f  171//85 170//85 172//85
f  171//85 169//85 170//85
f  173//86 172//86 174//86
f  173//86 171//86 172//86
f  175//87 174//87 176//87
f  175//87 173//87 174//87
f  177//88 176//88 178//88
f  177//88 175//88 176//88
f  179//89 178//89 180//89
f  179//89 177//89 178//89
f  181//64 180//64 182//64
f  181//64 179//64 180//64
f  183//36 182//36 184//36
f  183//36 181//36 182//36
f  185//64 184//64 186//64
f  185//64 183//64 184//64
f  4//90 186//90 2//90
f  4//90 185//90 186//90
f  187//1 188//1 189//1
f  187//1 190//1 188//1
f  191//91 189//91 192//91
f  191//91 187//91 189//91
f  193//92 192//92 194//92
f  193//92 191//92 192//92
f  195//93 194//93 196//93
f  195//93 193//93 194//93
f  197//94 196//94 198//94
f  197//94 195//94 196//94
f  199//95 198//95 200//95
f  199//95 197//95 198//95
f  201//96 200//96 202//96
f  201//96 199//96 200//96
f  203//97 202//97 204//97
f  203//97 201//97 202//97
f  205//98 204//98 206//98
f  205//98 203//98 204//98
f  207//99 206//99 208//99
f  207//99 205//99 206//99
f  209//100 208//100 210//100
f  209//100 207//100 208//100
f  211//101 210//101 212//101
f  211//101 209//101 210//101
f  213//102 212//102 214//102
f  213//102 211//102 212//102
f  215//103 214//103 216//103
f  215//103 213//103 214//103
f  217//104 216//104 218//104
f  217//104 215//104 216//104
f  219//105 218//105 220//105
f  219//105 217//105 218//105
f  221//106 220//106 222//106
f  221//106 219//106 220//106
f  223//107 222//107 224//107
f  223//107 221//107 222//107
f  225//108 224//108 226//108
f  225//108 223//108 224//108
f  227//109 226//109 228//109
f  227//109 225//109 226//109
f  229//110 228//110 230//110
f  229//110 227//110 228//110
f  231//111 230//111 232//111
f  231//111 229//111 230//111
f  233//112 232//112 234//112
f  233//112 231//112 232//112
f  235//113 234//113 236//113
f  235//113 233//113 234//113
f  237//114 236//114 238//114
f  237//114 235//114 236//114
f  239//115 238//115 240//115
f  239//115 237//115 238//115
f  241//116 240//116 242//116
f  241//116 239//116 240//116
f  243//117 242//117 244//117
f  243//117 241//117 242//117
f  245//118 244//118 246//118
f  245//118 243//118 244//118
f  247//119 246//119 248//119
f  247//119 245//119 246//119
f  249//120 248//120 250//120
f  249//120 247//120 248//120
f  251//121 250//121 252//121
f  251//121 249//121 250//121
f  253//122 252//122 254//122
f  253//122 251//122 252//122
f  255//123 254//123 256//123
f  255//123 253//123 254//123
f  257//124 256//124 258//124
f  257//124 255//124 256//124
f  259//125 258//125 260//125
f  259//125 257//125 258//125
f  261//64 260//64 262//64
f  261//64 259//64 260//64
f  190//36 262//36 188//36
f  190//36 261//36 262//36
f  263//64 264//64 265//64
f  263//64 266//64 264//64
f  266//36 267//36 264//36
f  266//36 268//36 267//36
f  268//1 269//1 267//1
f  268//1 270//1 269//1
f  270//90 265//90 269//90
f  270//90 263//90 265//90
f  245//126 241//126 243//126
f  245//126 239//126 241//126
f  237//126 245//126 247//126
f  237//126 239//126 245//126
f  247//126 235//126 237//126
f  249//126 233//126 247//126
f  247//126 233//126 235//126
f  229//126 249//126 251//126
f  229//126 231//126 249//126
f  249//126 231//126 233//126
f  227//126 229//126 251//126
f  227//126 251//126 253//126
f  255//126 227//126 253//126
f  255//126 225//126 227//126
f  257//126 225//126 255//126
f  257//126 223//126 225//126
f  223//126 257//126 191//126
f  257//126 187//126 191//126
f  257//126 259//126 187//126
f  223//126 191//126 221//126
f  221//126 191//126 193//126
f  221//126 193//126 219//126
f  219//126 193//126 195//126
f  219//126 195//126 217//126
f  217//126 195//126 197//126
f  217//126 197//126 215//126
f  215//126 197//126 199//126
f  215//126 199//126 213//126
f  213//126 199//126 201//126
f  213//126 201//126 211//126
f  211//126 201//126 203//126
f  205//126 209//126 211//126
f  211//126 203//126 205//126
f  205//126 207//126 209//126
f  259//126 190//127 187//126
f  259//126 261//128 190//127
f  145//126 175//126 177//126
f  145//126 147//126 175//126
f  179//126 145//126 177//126
f  179//126 143//126 145//126
f  147//126 173//126 175//126
f  147//126 149//126 173//126
f  149//126 171//126 173//126
f  149//126 151//126 171//126
f  171//126 153//126 169//126
f  171//126 151//126 153//126
f  153//126 167//126 169//126
f  153//126 155//126 167//126
f  155//126 165//126 167//126
f  163//126 155//126 157//126
f  155//126 163//126 165//126
f  163//126 157//126 161//126
f  161//126 157//126 159//126
f  179//126 141//126 143//126
f  183//129 179//126 181//126
f  183//129 141//126 179//126
f  183//129 139//126 141//126
f  183//129 137//126 139//126
f  183//129 135//126 137//126
f  183//129 133//126 135//126
f  183//129 131//126 133//126
f  183//129 129//129 131//126
f  265//130 183//129 185//130
f  129//129 183//129 265//130
f  264//129 127//129 129//129
f  129//129 265//130 264//129
f  185//130 269//130 265//130
f  185//130 4//131 269//130
f  269//130 1//132 267//133
f  269//130 4//131 1//132
f  267//133 1//132 5//134
f  267//133 5//134 7//135
f  267//133 7//135 9//136
f  267//133 9//136 11//137
f  267//133 11//137 13//138
f  267//133 13//138 15//139
f  267//133 15//139 17//140
f  267//133 17//140 19//133
f  267//133 19//133 21//133
f  267//133 21//133 23//141
f  267//133 23//141 25//142
f  267//133 25//142 27//143
f  267//133 27//143 29//144
f  267//133 29//144 31//145
f  267//133 31//145 33//146
f  267//133 33//146 35//147
f  267//133 35//147 37//148
f  267//133 37//148 39//149
f  267//133 39//149 41//150
f  267//133 41//150 43//151
f  267//133 43//151 105//152
f  105//152 43//151 45//126
f  267//133 105//152 107//153
f  105//152 45//126 103//126
f  103//126 45//126 47//126
f  103//126 49//126 101//126
f  103//126 47//126 49//126
f  49//126 99//126 101//126
f  49//126 51//126 99//126
f  51//126 97//126 99//126
f  51//126 53//126 97//126
f  53//126 95//126 97//126
f  53//126 55//126 95//126
f  95//126 55//126 93//126
f  55//126 91//126 93//126
f  55//126 57//126 91//126
f  57//126 89//126 91//126
f  57//126 59//126 89//126
f  89//126 59//126 87//126
f  59//126 85//126 87//126
f  59//126 61//126 85//126
f  61//126 83//126 85//126
f  61//126 63//126 83//126
f  63//126 81//126 83//126
f  63//126 65//126 81//126
f  81//126 67//126 79//126
f  81//126 65//126 67//126
f  67//126 77//126 79//126
f  67//126 69//126 77//126
f  77//126 69//126 75//126
f  75//126 69//126 71//126
f  75//126 71//126 73//126
f  267//133 107//153 127//129
f  127//129 107//153 109//126
f  264//129 267//133 127//129
f  127//129 123//126 125//126
f  127//129 121//126 123//126
f  127//129 119//126 121//126
f  127//129 117//126 119//126
f  127//129 115//126 117//126
f  127//129 113//126 115//126
f  127//129 111//126 113//126
f  127//129 109//126 111//126
f  270//154 266//154 263//154
f  270//154 268//154 266//154
f  262//126 3//126 2//126
f  262//126 260//126 3//126
f  2//126 188//126 262//126
f  258//126 6//126 3//126
f  3//126 260//126 258//126
f  258//126 256//126 6//126
f  254//126 8//126 6//126
f  6//126 256//126 254//126
f  254//126 252//126 8//126
f  250//126 10//126 8//126
f  8//126 252//126 250//126
f  250//126 248//126 10//126
f  248//126 12//126 10//126
f  248//126 246//126 12//126
f  246//126 14//126 12//126
f  246//126 244//126 14//126
f  14//126 242//126 16//126
f  14//126 244//126 242//126
f  16//126 242//126 18//126
f  18//126 242//126 240//126
f  18//126 240//126 20//126
f  20//126 240//126 238//126
f  20//126 238//126 22//126
f  22//126 238//126 24//126
f  24//126 238//126 236//126
f  24//126 236//126 26//126
f  26//126 236//126 234//126
f  26//126 234//126 28//126
f  234//126 30//126 28//126
f  234//126 232//126 30//126
f  232//126 32//126 30//126
f  232//126 230//126 32//126
f  230//126 34//126 32//126
f  230//126 228//126 34//126
f  34//126 228//126 36//126
f  228//126 38//126 36//126
f  228//126 226//126 38//126
f  38//126 226//126 40//126
f  40//126 226//126 224//126
f  40//126 224//126 42//126
f  42//126 224//126 222//126
f  42//126 222//126 44//126
f  222//126 46//126 44//126
f  222//126 220//126 46//126
f  46//126 220//126 48//126
f  220//126 50//126 48//126
f  220//126 218//126 50//126
f  218//126 52//126 50//126
f  218//126 216//126 52//126
f  52//126 216//126 54//126
f  216//126 56//126 54//126
f  216//126 214//126 56//126
f  214//126 58//126 56//126
f  214//126 212//126 58//126
f  58//126 212//126 60//126
f  212//126 62//126 60//126
f  212//126 210//126 62//126
f  62//126 210//126 64//126
f  64//126 210//126 66//126
f  210//126 68//126 66//126
f  210//126 208//126 68//126
f  208//126 70//126 68//126
f  208//126 206//126 70//126
f  206//126 72//126 70//126
f  206//126 204//126 72//126
f  72//126 202//126 200//126
f  72//126 204//126 202//126
f  196//126 72//126 198//126
f  196//126 74//126 72//126
f  72//126 200//126 198//126
f  196//126 170//126 74//126
f  196//126 172//126 170//126
f  172//126 196//126 194//126
f  74//126 170//126 168//126
f  74//126 168//126 166//126
f  74//126 166//126 164//126
f  74//126 164//126 162//126
f  74//126 162//126 160//126
f  74//126 160//126 158//126
f  74//126 158//126 76//126
f  76//126 158//126 78//126
f  78//126 158//126 156//126
f  78//126 156//126 80//126
f  80//126 156//126 82//126
f  82//126 156//126 84//126
f  84//126 156//126 154//126
f  84//126 154//126 86//126
f  86//126 154//126 88//126
f  88//126 154//126 90//126
f  90//126 154//126 92//126
f  92//126 154//126 152//126
f  92//126 152//126 94//126
f  94//126 152//126 96//126
f  96//126 152//126 98//126
f  98//126 152//126 150//126
f  98//126 150//126 100//126
f  100//126 150//126 102//126
f  150//126 104//126 102//126
f  150//126 148//126 104//126
f  104//126 148//126 106//126
f  148//126 108//126 106//126
f  148//126 146//126 108//126
f  108//126 146//126 110//126
f  110//126 146//126 144//126
f  110//126 144//126 112//126
f  112//126 144//126 142//126
f  112//126 142//126 114//126
f  114//126 142//126 140//126
f  114//126 140//126 116//126
f  116//126 140//126 138//126
f  116//126 136//126 118//126
f  116//126 138//126 136//126
f  118//126 136//126 134//126
f  118//126 130//126 120//126
f  118//126 132//126 130//126
f  118//126 134//126 132//126
f  122//126 130//126 124//126
f  124//126 130//126 126//126
f  126//126 130//126 128//126
f  120//126 130//126 122//126
f  172//126 194//126 174//126
f  174//126 194//126 192//126
f  174//126 192//126 176//126
f  176//126 192//126 189//126
f  176//126 189//126 178//126
f  178//126 189//126 180//126
f  180//126 189//126 188//126
f  180//126 188//126 182//126
f  186//126 188//126 2//126
f  186//126 182//126 188//126
f  182//126 186//126 184//126

