# File produced by Open Asset Import Library (http://www.assimp.sf.net)
# (assimp v3.1.187496374)

mtllib T.obj.mtl

# 24 vertex positions
v  2.601 3.226 0.05
v  -2.601 3.226 1.5
v  2.601 3.226 1.5
v  -2.601 3.226 0.05
v  2.601 2.254 0.05
v  2.601 2.254 1.5
v  0.558 2.254 0.05
v  0.558 2.254 1.5
v  0.558 -3.2 0.05
v  0.558 -3.2 1.5
v  -0.567 -3.2 0.05
v  -0.567 -3.2 1.5
v  -0.567 2.254 0.05
v  -0.567 2.254 1.5
v  -2.601 2.254 0.05
v  -2.601 2.254 1.5
v  -4.61806 -4.625 -0.05
v  14.3819 -4.625 0.05
v  -4.61806 -4.625 0.05
v  14.3819 -4.625 -0.05
v  14.3819 4.625 0.05
v  14.3819 4.625 -0.05
v  -4.61806 4.625 0.05
v  -4.61806 4.625 -0.05

# 0 UV coordinates

# 11 vertex normals
vn 0 1 0
vn 1 0 0
vn 0 -1 0
vn -1 0 0
vn 0 2.97594e-17 1
vn -8.00334e-18 -1.15391e-17 1
vn 0 -2.92164e-17 1
vn -2.06407e-17 0 1
vn 2.89972e-18 -1.0862e-18 1
vn 0 0 1
vn 0 0 -1

# Mesh '<STL_BINARY>' with 44 faces
g <STL_BINARY>
usemtl DefaultMaterial
f  1//1 2//1 3//1
f  1//1 4//1 2//1
f  5//2 3//2 6//2
f  5//2 1//2 3//2
f  7//3 6//3 8//3
f  7//3 5//3 6//3
f  9//2 8//2 10//2
f  9//2 7//2 8//2
f  11//3 10//3 12//3
f  11//3 9//3 10//3
f  13//4 12//4 14//4
f  13//4 11//4 12//4
f  15//3 14//3 16//3
f  15//3 13//3 14//3
f  4//4 16//4 2//4
f  4//4 15//4 16//4
f  17//3 18//3 19//3
f  17//3 20//3 18//3
f  20//2 21//2 18//2
f  20//2 22//2 21//2
f  22//1 23//1 21//1
f  22//1 24//1 23//1
f  24//4 19//4 23//4
f  24//4 17//4 19//4
f  23//5 1//5 21//5
f  23//5 4//6 1//5
f  19//7 15//8 23//5
f  23//5 15//8 4//6
f  21//5 1//5 5//9
f  18//7 21//5 5//9
f  18//7 5//9 9//7
f  9//7 5//9 7//10
f  9//7 19//7 18//7
f  9//7 11//7 19//7
f  19//7 11//7 15//8
f  15//8 11//7 13//10
f  24//11 20//11 17//11
f  24//11 22//11 20//11
f  2//10 8//10 3//10
f  2//10 14//10 8//10
f  2//10 16//10 14//10
f  3//10 8//10 6//10
f  14//10 10//10 8//10
f  14//10 12//10 10//10

