# File produced by Open Asset Import Library (http://www.assimp.sf.net)
# (assimp v3.1.187496374)

mtllib W.obj.mtl

# 40 vertex positions
v  -2.1357 1.2982 0.05
v  -2.9358 1.2982 1.5
v  -2.1357 1.2982 1.5
v  -2.9358 1.2982 0.05
v  -1.323 -2.1416 0.05
v  -1.323 -2.1416 1.5
v  -1.3104 -2.1416 0.05
v  -1.3104 -2.1416 1.5
v  -0.4032 1.2982 0.05
v  -0.4032 1.2982 1.5
v  0.4032 1.2982 0.05
v  0.4032 1.2982 1.5
v  1.2852 -2.1416 0.05
v  1.2852 -2.1416 1.5
v  1.2978 -2.1416 0.05
v  1.2978 -2.1416 1.5
v  2.1357 1.2982 0.05
v  2.1357 1.2982 1.5
v  2.9358 1.2982 0.05
v  2.9358 1.2982 1.5
v  1.6947 -3.2 0.05
v  1.6947 -3.2 1.5
v  0.8946 -3.2 0.05
v  0.8946 -3.2 1.5
v  -0.0063 0.2398 0.05
v  -0.0063 0.2398 1.5
v  -0.0189 0.2398 0.05
v  -0.0189 0.2398 1.5
v  -0.9387 -3.2 0.05
v  -0.9387 -3.2 1.5
v  -1.7514 -3.2 0.05
v  -1.7514 -3.2 1.5
v  -4.625 -4.625 -0.05
v  4.625 -4.625 0.05
v  -4.625 -4.625 0.05
v  4.625 -4.625 -0.05
v  4.625 4.625 0.05
v  4.625 4.625 -0.05
v  -4.625 4.625 0.05
v  -4.625 4.625 -0.05

# 0 UV coordinates

# 20 vertex normals
vn 0 1 0
vn 0.973206 0.229933 0
vn -0.966937 0.255016 0
vn 0.968664 0.248375 0
vn -0.97159 0.236669 0
vn 0.963981 -0.265972 0
vn 0 -1 0
vn -0.967372 -0.253359 0
vn 0.966058 -0.258323 0
vn -0.967039 -0.254627 0
vn 1 0 0
vn -1 0 0
vn -5.20352e-17 -2.64211e-17 1
vn 0 1.25145e-17 1
vn 0 -2.92164e-17 1
vn -1.68747e-17 4.81238e-18 1
vn 2.46468e-17 0 1
vn 1.25271e-17 -3.45635e-18 1
vn 0 0 1
vn 0 0 -1

# Mesh '<STL_BINARY>' with 76 faces
g <STL_BINARY>
usemtl DefaultMaterial
f  1//1 2//1 3//1
f  1//1 4//1 2//1
f  5//2 3//2 6//2
f  5//2 1//2 3//2
f  7//1 6//1 8//1
f  7//1 5//1 6//1
f  9//3 8//3 10//3
f  9//3 7//3 8//3
f  11//1 10//1 12//1
f  11//1 9//1 10//1
f  13//4 12//4 14//4
f  13//4 11//4 12//4
f  15//1 14//1 16//1
f  15//1 13//1 14//1
f  17//5 16//5 18//5
f  17//5 15//5 16//5
f  19//1 18//1 20//1
f  19//1 17//1 18//1
f  21//6 20//6 22//6
f  21//6 19//6 20//6
f  23//7 22//7 24//7
f  23//7 21//7 22//7
f  25//8 24//8 26//8
f  25//8 23//8 24//8
f  27//7 26//7 28//7
f  27//7 25//7 26//7
f  29//9 28//9 30//9
f  29//9 27//9 28//9
f  31//7 30//7 32//7
f  31//7 29//7 30//7
f  4//10 32//10 2//10
f  4//10 31//10 32//10
f  33//7 34//7 35//7
f  33//7 36//7 34//7
f  36//11 37//11 34//11
f  36//11 38//11 37//11
f  38//1 39//1 37//1
f  38//1 40//1 39//1
f  40//12 35//12 39//12
f  40//12 33//12 35//12
f  39//13 4//13 1//13
f  37//14 39//13 9//14
f  39//13 1//13 9//14
f  35//15 4//13 39//13
f  35//15 31//16 4//13
f  23//15 35//15 34//17
f  23//15 29//15 35//15
f  35//15 29//15 31//16
f  34//17 21//18 23//15
f  29//15 23//15 27//19
f  27//19 23//15 25//19
f  19//14 34//17 37//14
f  19//14 21//18 34//17
f  37//14 17//19 19//14
f  17//19 13//19 15//19
f  37//14 11//14 17//19
f  17//19 11//14 13//19
f  37//14 9//14 11//14
f  1//13 7//19 9//14
f  1//13 5//19 7//19
f  40//20 36//20 33//20
f  40//20 38//20 36//20
f  2//19 6//19 3//19
f  2//19 32//19 6//19
f  6//19 30//19 8//19
f  6//19 32//19 30//19
f  8//19 30//19 28//19
f  8//19 28//19 10//19
f  10//19 28//19 26//19
f  10//19 26//19 12//19
f  26//19 14//19 12//19
f  26//19 24//19 14//19
f  24//19 16//19 14//19
f  24//19 22//19 16//19
f  16//19 20//19 18//19
f  16//19 22//19 20//19

