# File produced by Open Asset Import Library (http://www.assimp.sf.net)
# (assimp v3.1.187496374)

mtllib X.obj.mtl

# 32 vertex positions
v  -1.449 3.226 0.05
v  -2.79 3.226 1.5
v  -1.449 3.226 1.5
v  -2.79 3.226 0.05
v  0.009 0.958 0.05
v  0.009 0.958 1.5
v  1.53 3.226 0.05
v  1.53 3.226 1.5
v  2.79 3.226 0.05
v  2.79 3.226 1.5
v  0.666 0.13 0.05
v  0.666 0.13 1.5
v  2.943 -3.2 0.05
v  2.943 -3.2 1.5
v  1.575 -3.2 0.05
v  1.575 -3.2 1.5
v  -0.027 -0.743 0.05
v  -0.027 -0.743 1.5
v  -1.656 -3.2 0.05
v  -1.656 -3.2 1.5
v  -2.943 -3.2 0.05
v  -2.943 -3.2 1.5
v  -0.666 0.13 0.05
v  -0.666 0.13 1.5
v  -4.625 -14.3819 -0.05
v  4.625 -14.3819 0.05
v  -4.625 -14.3819 0.05
v  4.625 -14.3819 -0.05
v  4.625 4.61806 0.05
v  4.625 4.61806 -0.05
v  -4.625 4.61806 0.05
v  -4.625 4.61806 -0.05

# 0 UV coordinates

# 21 vertex normals
vn 0 1 0
vn 0.841178 0.540758 0
vn -0.830526 0.55698 0
vn 0.824601 -0.565715 0
vn 0.825471 0.564444 0
vn 0 -1 0
vn -0.837672 -0.546174 0
vn 0.833457 -0.552585 0
vn -0.825471 0.564444 0
vn -0.824601 -0.565715 0
vn 1 0 0
vn -1 0 0
vn 2.47523e-17 0 1
vn 2.22859e-17 5.30618e-19 1
vn 0 2.99078e-17 1
vn -3.10465e-17 -4.09253e-17 1
vn 0 0 1
vn 0 -3.72327e-18 1
vn -2.47523e-17 0 1
vn -9.81689e-18 6.71263e-18 1
vn 0 0 -1

# Mesh '<STL_BINARY>' with 60 faces
g <STL_BINARY>
usemtl DefaultMaterial
f  1//1 2//1 3//1
f  1//1 4//1 2//1
f  5//2 3//2 6//2
f  5//2 1//2 3//2
f  7//3 6//3 8//3
f  7//3 5//3 6//3
f  9//1 8//1 10//1
f  9//1 7//1 8//1
f  11//4 10//4 12//4
f  11//4 9//4 10//4
f  13//5 12//5 14//5
f  13//5 11//5 12//5
f  15//6 14//6 16//6
f  15//6 13//6 14//6
f  17//7 16//7 18//7
f  17//7 15//7 16//7
f  19//8 18//8 20//8
f  19//8 17//8 18//8
f  21//6 20//6 22//6
f  21//6 19//6 20//6
f  23//9 22//9 24//9
f  23//9 21//9 22//9
f  4//10 24//10 2//10
f  4//10 23//10 24//10
f  25//6 26//6 27//6
f  25//6 28//6 26//6
f  28//11 29//11 26//11
f  28//11 30//11 29//11
f  30//1 31//1 29//1
f  30//1 32//1 31//1
f  32//12 27//12 31//12
f  32//12 25//12 27//12
f  29//13 13//13 26//13
f  29//13 9//14 13//13
f  29//13 7//15 9//14
f  29//13 1//16 7//15
f  29//13 31//16 1//16
f  26//13 13//13 15//17
f  13//13 9//14 11//17
f  15//17 27//18 26//13
f  19//17 15//17 17//17
f  15//17 19//17 27//18
f  21//19 31//16 27//18
f  27//18 19//17 21//19
f  31//16 4//16 1//16
f  21//19 4//16 31//16
f  7//15 1//16 5//17
f  4//16 21//19 23//20
f  32//21 28//21 25//21
f  32//21 30//21 28//21
f  24//17 3//17 2//17
f  24//17 6//17 3//17
f  24//17 12//17 6//17
f  24//17 18//17 12//17
f  24//17 20//17 18//17
f  24//17 22//17 20//17
f  12//17 8//17 6//17
f  12//17 10//17 8//17
f  12//17 16//17 14//17
f  12//17 18//17 16//17

