# File produced by Open Asset Import Library (http://www.assimp.sf.net)
# (assimp v3.1.187496374)

mtllib Z.obj.mtl

# 28 vertex positions
v  2.5425 3.226 0.05
v  -2.3445 3.226 1.5
v  2.5425 3.226 1.5
v  -2.3445 3.226 0.05
v  2.5425 2.371 0.05
v  2.5425 2.371 1.5
v  -1.2015 -2.228 0.05
v  -1.2015 -2.228 1.5
v  2.6325 -2.228 0.05
v  2.6325 -2.228 1.5
v  2.6325 -3.2 0.05
v  2.6325 -3.2 1.5
v  -2.6325 -3.2 0.05
v  -2.6325 -3.2 1.5
v  -2.6325 -2.282 0.05
v  -2.6325 -2.282 1.5
v  1.1115 2.254 0.05
v  1.1115 2.254 1.5
v  -2.3445 2.254 0.05
v  -2.3445 2.254 1.5
v  -4.61806 -4.625 -0.05
v  14.3819 -4.625 0.05
v  -4.61806 -4.625 0.05
v  14.3819 -4.625 -0.05
v  14.3819 4.625 0.05
v  14.3819 4.625 -0.05
v  -4.61806 4.625 0.05
v  -4.61806 4.625 -0.05

# 0 UV coordinates

# 12 vertex normals
vn 0 1 0
vn 1 0 0
vn 0.77551 -0.631335 0
vn 0 -1 0
vn -1 0 0
vn -0.771223 0.636565 0
vn 0 0 1
vn 3.5165e-18 0 1
vn 0 -2.92164e-17 1
vn 2.63565e-17 4.28327e-17 1
vn -2.09681e-17 0 1
vn 0 0 -1

# Mesh '<STL_BINARY>' with 52 faces
g <STL_BINARY>
usemtl DefaultMaterial
f  1//1 2//1 3//1
f  1//1 4//1 2//1
f  5//2 3//2 6//2
f  5//2 1//2 3//2
f  7//3 6//3 8//3
f  7//3 5//3 6//3
f  9//1 8//1 10//1
f  9//1 7//1 8//1
f  11//2 10//2 12//2
f  11//2 9//2 10//2
f  13//4 12//4 14//4
f  13//4 11//4 12//4
f  15//5 14//5 16//5
f  15//5 13//5 14//5
f  17//6 16//6 18//6
f  17//6 15//6 16//6
f  19//4 18//4 20//4
f  19//4 17//4 18//4
f  4//5 20//5 2//5
f  4//5 19//5 20//5
f  21//4 22//4 23//4
f  21//4 24//4 22//4
f  24//2 25//2 22//2
f  24//2 26//2 25//2
f  26//1 27//1 25//1
f  26//1 28//1 27//1
f  28//5 23//5 27//5
f  28//5 21//5 23//5
f  9//7 5//7 7//7
f  25//8 9//7 22//9
f  25//8 5//7 9//7
f  22//9 9//7 11//9
f  25//8 1//8 5//7
f  27//10 1//8 25//8
f  27//10 4//10 1//8
f  27//10 19//10 4//10
f  15//11 27//10 23//9
f  15//11 19//10 27//10
f  19//10 15//11 17//7
f  23//9 13//9 15//11
f  11//9 23//9 22//9
f  11//9 13//9 23//9
f  28//12 24//12 21//12
f  28//12 26//12 24//12
f  2//7 18//7 3//7
f  2//7 20//7 18//7
f  3//7 18//7 6//7
f  18//7 8//7 6//7
f  18//7 16//7 8//7
f  8//7 16//7 14//7
f  8//7 12//7 10//7
f  8//7 14//7 12//7

